<svg id="Acara" xmlns="http://www.w3.org/2000/svg" viewBox="0 0 128 128"><defs><style>.cls-1{fill:#f89938;}</style></defs><rect class="cls-1" x="20.92181" y="43.44704" width="8.22119" height="2.98952"/><rect class="cls-1" x="20.92181" y="51.16997" width="8.22119" height="2.98952"/><rect class="cls-1" x="20.92181" y="58.8929" width="8.22119" height="2.98952"/><rect class="cls-1" x="20.92181" y="66.61584" width="8.22119" height="2.98952"/><rect class="cls-1" x="20.92181" y="74.33877" width="8.22119" height="2.98952"/><rect class="cls-1" x="20.92181" y="82.06171" width="8.22119" height="2.98952"/><rect class="cls-1" x="32.67229" y="43.44704" width="2.98952" height="2.98952"/><rect class="cls-1" x="32.67229" y="51.16997" width="2.98952" height="2.98952"/><rect class="cls-1" x="32.67229" y="58.8929" width="2.98952" height="2.98952"/><rect class="cls-1" x="32.67229" y="66.61584" width="2.98952" height="2.98952"/><rect class="cls-1" x="32.67229" y="74.33877" width="2.98952" height="2.98952"/><rect class="cls-1" x="32.67229" y="82.06171" width="2.98952" height="2.98952"/><rect class="cls-1" x="38.6029" y="43.44704" width="8.22119" height="2.98952"/><rect class="cls-1" x="38.6029" y="51.16997" width="8.22119" height="2.98952"/><rect class="cls-1" x="38.6029" y="58.8929" width="8.22119" height="2.98952"/><rect class="cls-1" x="38.6029" y="66.61584" width="8.22119" height="2.98952"/><rect class="cls-1" x="38.6029" y="74.33877" width="8.22119" height="2.98952"/><rect class="cls-1" x="38.6029" y="82.06171" width="8.22119" height="2.98952"/><rect class="cls-1" x="50.35338" y="43.44704" width="2.98952" height="2.98952"/><rect class="cls-1" x="50.35338" y="51.16997" width="2.98952" height="2.98952"/><rect class="cls-1" x="50.35338" y="58.8929" width="2.98952" height="2.98952"/><rect class="cls-1" x="50.35338" y="66.61584" width="2.98952" height="2.98952"/><rect class="cls-1" x="56.28399" y="43.44704" width="8.22119" height="2.98952"/><rect class="cls-1" x="56.28399" y="51.16997" width="8.22119" height="2.98952"/><rect class="cls-1" x="68.03447" y="43.44704" width="2.98952" height="2.98952"/><rect class="cls-1" x="73.96508" y="43.44704" width="8.22119" height="2.98952"/><rect class="cls-1" x="85.71556" y="43.44704" width="2.98952" height="2.98952"/><path class="cls-1" d="M87.1688,52.78929A30.3312,30.3312,0,1,0,117.5,83.12048,30.3312,30.3312,0,0,0,87.1688,52.78929Zm0,52.87719a22.546,22.546,0,1,1,22.546-22.546A22.546,22.546,0,0,1,87.1688,105.66648Z"/><path class="cls-1" d="M51.58516,83.12048c0-.35428.00668-.707.017-1.05878H50.35339v2.98953h1.28438Q51.58649,84.09221,51.58516,83.12048Z"/><path class="cls-1" d="M52.87066,74.33877H50.35339v2.98952h1.893Q52.49615,75.81121,52.87066,74.33877Z"/><path class="cls-1" d="M61.3655,58.8929H56.284v2.98952h2.5658A35.5823,35.5823,0,0,1,61.3655,58.8929Z"/><path class="cls-1" d="M71.024,51.61211V51.17H68.03447v2.16692Q69.48262,52.40461,71.024,51.61211Z"/><path class="cls-1" d="M55.11707,98.15494l-.04647-.09954q-.18438-.39558-.35923-.79639l-.03129-.07154q-.48435-1.11711-.89285-2.273l-.01413-.04012q-.57641-1.6377-.99362-3.34582H23.12941a4.56034,4.56034,0,0,1-4.56035-4.56034V37.468H93.61138V48.31043q.48174.08859.95862.19064c.08629.01836.17237.03729.25843.05626q.33822.07463.674.15567c.09445.02278.1889.04554.283.06907q.20219.05058.40356.1031.23717.06226.47292.128.218.06054.43469.124.17472.05091.34862.1037.23339.0707.46546.14433.22135.07036.44155.14335.16.05325.31939.10783.29277.10049.58339.20548c.08989.03266.17922.06646.26877.09982q.22517.08385.44886.17064c.08288.03217.166.06382.24859.09659q.30234.12.60165.24583.12745.05334.25436.10769.30288.12954.60318.26387V19.15716a4.60884,4.60884,0,0,0-4.60884-4.60885H15.10885A4.60885,4.60885,0,0,0,10.5,19.15716V94.39349a4.60884,4.60884,0,0,0,4.60885,4.60884h40.42l-.00036-.00072Q55.31718,98.58149,55.11707,98.15494Zm-36.548-71.57248a4.56034,4.56034,0,0,1,4.56035-4.56034H89.051a4.56034,4.56034,0,0,1,4.56035,4.56034v3.41172H18.56906Z"/><path class="cls-1" d="M98.43142,83.86787H89.72235V70.114a2.0034,2.0034,0,0,0-4.00679,0V85.87127a2.0034,2.0034,0,0,0,2.0034,2.0034H98.43142a2.0034,2.0034,0,0,0,0-4.0068Z"/></svg>