<svg id="Layer_65" data-name="Layer 65" xmlns="http://www.w3.org/2000/svg" viewBox="0 0 128 128"><defs><style>.cls-1{fill:#fff;}</style></defs><path class="cls-1" d="M86.97134,12.032,17.07452,25.25908a.5615.5615,0,0,0-.37613.81492l.50151,1.19106,5.07768,12.91365v.06269c1.59529,4.85254,4.47254,11.97038,7.6479,19.43325l16.04807,40.80978a.98483.98483,0,0,0,1.0029.564l67.01309-12.85093-4.70136,11.66L41.77333,112.6456a.85769.85769,0,0,1-.94018-.50146L12.37294,39.928l-1.44181.25072a.56155.56155,0,0,0-.37613.815L39.89284,115.4666a.85774.85774,0,0,0,.94031.50144L110.73,102.67823a.71847.71847,0,0,0,.376-.25057c.01012-.01012.05489.00982.06256,0v-.06287L117.5,87.31974l-.12543-.12513c.004-.084-.027-.09876-.06257-.18831L87.91167,12.53347A.85808.85808,0,0,0,86.97134,12.032ZM16.07153,30.086l-2.88365,7.33445L42.27509,110.6398l65.32043-12.66293,2.75813-6.95836L45.66011,103.30512a.781.781,0,0,1-.87777-.50145Zm50.5262,4.76426a12.77084,12.77084,0,0,1,1.69266,1.75526,8.453,8.453,0,0,1,1.0029,1.37913l.06257.25076-.564-.25076-.50176-.25075.25088.75226c.22175.68013.73945,1.98572,1.31635,3.32243.12421.288.77319,1.79786,1.44178,3.385.66892,1.58747,1.31114,3.13783,1.4421,3.4479.13065.31038.3711.818.50145,1.12834.13.31038.52169,1.228.87746,2.06867.35607.84066.69191,1.72272.75233,1.94355a3.31578,3.31578,0,0,1-.43888,2.88357,5.63061,5.63061,0,0,1-1.37892,1.25378c-.17727.10672-.35331.15856-.37631.188a4.22944,4.22944,0,0,0,.25088.8149,15.35059,15.35059,0,0,1,.81489,4.45079c-.01012,1.02836-.01012.98787-.43889-.43889-.37478-1.24672-.73484-2.20331-1.37921-3.8239-.29781-.749-.296-.78146-.43858-.81489a9.33917,9.33917,0,0,1-1.8181-.564,24.58391,24.58391,0,0,1-2.57013-1.37922c-.33277-.19874-.83268-.5131-1.12834-.68945a29.12464,29.12464,0,0,0-4.01222-2.00611c-.25517-.05766-.16438.07851.25088.376,1.92821,1.385,2.81855,2.65845,2.94645,4.20022a1.629,1.629,0,0,1-.31345,1.19091,4.4631,4.4631,0,0,1-1.12834,1.25377,12.07933,12.07933,0,0,1-2.13154,1.44179c-.71461.43766-1.50834.95782-1.75523,1.12834a7.83318,7.83318,0,0,0-2.75814,3.07188l-.188.376.12544.43889a4.58155,4.58155,0,0,0,2.8207,3.385,6.53063,6.53063,0,0,0,2.88387.12544,7.561,7.561,0,0,0,2.25668-.94034.35872.35872,0,0,0,.06256-.25057c-.0003-.395.09723-1.71107.188-2.31955l.12513-.62689-.62658-.376c-.51-.3254-.56156-.44624-.56432-.56432-.00614-.30639.28921-1.09613.43888-1.12834a1.09242,1.09242,0,0,1,.25057.06257c.17206.04692.17452.00613.50145-.50145a9.45742,9.45742,0,0,0,1.12865-2.19411c.07913-.28431.08434-.33216-.12544-.376a.82645.82645,0,0,1-.56432-.68945c-.13127-.98787.28707-1.58471.81489-1.19121a1.6853,1.6853,0,0,1,.31345.25088,2.79136,2.79136,0,0,1,.31344,1.12833c.02423.284-.012.295.188.43889.25272.18064.39564.35362.37631.564-.02024.22021-.19321.21009-.50145,0l-.25087-.188-.12544.25057c-.23064.47232-1.113,1.95581-1.37922,2.31956l-.25057.31344.50145.31344a2.36937,2.36937,0,0,1,.50145.376c.0368.13985-.05429.41465-.31345,1.06577a5.31652,5.31652,0,0,0-.376,1.8181,3.0918,3.0918,0,0,0,.06257,1.06547,23.18443,23.18443,0,0,0,2.94613-2.38212,16.70621,16.70621,0,0,0,1.81811-2.19381c.55635-.81428.5545-.82992.376-1.06577-.04693-.06226-.24291-.35424-.43858-.62689-.39012-.54316-.54531-.72657-1.50466-1.88067-.35515-.42723-.87194-1.05289-1.12833-1.37922l-.43889-.564-.06257-.50145c-.02975-.46864.02025-.87593.12544-.94034a2.82522,2.82522,0,0,1,.62689.376c.28339.19966.79772.54194,1.19091.8149a5.63007,5.63007,0,0,1,.75233.56432c-.00583.11869-.26039.14292-.564.06257a.59212.59212,0,0,0-.37632,0,5.85431,5.85431,0,0,0,1.06578,1.50465,5.41887,5.41887,0,0,1,1.25377,1.88036,3.69556,3.69556,0,0,1-.50145,3.32246A16.30925,16.30925,0,0,1,66.472,70.51947c-.56157.39656-.61923.449-.50146.87777A3.7879,3.7879,0,0,0,67.22431,73.215c.93206.66615,1.76781.35056,2.75844-1.06547a14.95451,14.95451,0,0,0,1.37891-2.633A10.94354,10.94354,0,0,1,75.87533,64c.94279-.69191.88175-.67872,1.37891-1.06578a1.87128,1.87128,0,0,1,.43888-.25057,2.04733,2.04733,0,0,0,.31345-.25088l.25088-.31344-.25088-.50145a8.03594,8.03594,0,0,1-1.06578-3.25958,2.449,2.449,0,0,1,.56433-1.75554,1.98678,1.98678,0,0,1,1.06577-.31344c.44748.04968,1.15656.72012,1.62979,1.50466a4.27669,4.27669,0,0,1-.06257,4.45079l-.25087.43888.188.188A2.86086,2.86086,0,0,0,81.329,63.436a3.4478,3.4478,0,0,0,1.69266-.25088,3.93419,3.93419,0,0,0,1.44178-1.37921l.06257-.12514-.94033-2.445c-.51894-1.35192-1.044-2.77254-1.19091-3.13445-.80693-1.98341-1.31114-3.22124-1.8181-4.45079-.24751-.59959-1.22925-2.89-1.50436-3.573-.22358-.55481-2.03953-5.02554-3.32245-8.1495-.29136-.7085-.5493-1.39756-.56432-1.50451a3.49792,3.49792,0,0,1,.188-1.06571,12.71807,12.71807,0,0,1,1.75523,2.006,11.30765,11.30765,0,0,1,.81489,1.37912c.05031.17353-.28185.05-.62688-.25075-.25272-.22061-.26315-.18807-.12544.18807.06778.18214.42876,1.25374.8152,2.31958.63609,1.75492.95444,2.48609,2.38212,6.018.23953.59346.549,1.40774.68946,1.75523.14077.34749.5223,1.21912.81489,1.94323.29259.72381.71123,1.90889,1.00321,2.633.67259,1.66935,1.02958,2.40972,1.37891,3.25958a9.80417,9.80417,0,0,1,.50145,1.56722,4.81416,4.81416,0,0,1,.12544,2.633,2.59554,2.59554,0,0,1-1.37922,1.62979,2.74642,2.74642,0,0,1-1.06547.43889,2.98993,2.98993,0,0,1-.94033.12513,3.3842,3.3842,0,0,1-1.94324-1.25347,1.66257,1.66257,0,0,0-.43888-.37632,23.56841,23.56841,0,0,0-2.50756,1.75523,33.72979,33.72979,0,0,0-2.57012,2.19412,13.85025,13.85025,0,0,0-2.31955,3.88677,15.26407,15.26407,0,0,1-1.37923,2.44469,1.82021,1.82021,0,0,1-1.62978.75232,3.45541,3.45541,0,0,1-2.633-1.69266,8.3925,8.3925,0,0,1-.62688-1.1909c-.03988-.14384-.0457-.18372-.68946.06256a14.557,14.557,0,0,1-2.57012.68946,4.15937,4.15937,0,0,1-3.6359-1.0029,6.4871,6.4871,0,0,1-1.69267-3.009c-.14721-.472-.28124-.90476-.31344-.94033-.04355-.04816-.14752.02729-.31345.25087-.12206.16439-.30393.445-.43857.62689a1.40979,1.40979,0,0,1-1.00321.68946,2.59577,2.59577,0,0,1-2.06868-.43889,3.73564,3.73564,0,0,1-1.56722-2.19411,7.0309,7.0309,0,0,1-.188-2.57013c.06472-.886.0822-.99768.12544-1.31634a.893.893,0,0,0,0-.31345c-.01012-.004-.13372-.02852-.31344-.06287a4.34525,4.34525,0,0,1-1.37922-.50145,3.18062,3.18062,0,0,1-1.56722-2.19411A7.73031,7.73031,0,0,1,47.979,55.161l.188-.68946-.12544-.188a3.5812,3.5812,0,0,1-.564-1.37922,7.60906,7.60906,0,0,1,.8149-3.88647l.25088-.62689-.188-.31345a4.80643,4.80643,0,0,1-.25088-1.88067,4.49976,4.49976,0,0,1,.06257-.62689,33.103,33.103,0,0,1,4.07478-3.57327,54.86587,54.86587,0,0,1,6.64491-4.38813c.14752-.08085.48458-.28762.75233-.43879.5677-.32069,2.349-1.17962,3.13414-1.5672.90629-.44732,1.50374-.49516,2.069-.12538.587.38417.65971,1.42216.25057,2.88363A15.778,15.778,0,0,1,63.651,41.68322c-.23064.44348-.52445,1.14637-.68945,1.5046a5.06124,5.06124,0,0,1-.31345.62689,2.78761,2.78761,0,0,1,.06257-1.00321A9.73537,9.73537,0,0,1,63.839,40.05337a18.54673,18.54673,0,0,0,1.0029-2.06871,1.20689,1.20689,0,0,0-.188-.87761,1.05526,1.05526,0,0,0-.376-.25076c-.20548-.07263-.26008-.016-1.06577.18807a12.78555,12.78555,0,0,0-4.26279,2.006c-1.89355,1.146-2.211,1.36064-4.51336,2.94632-.1558.10753-.44441.31563-.62689.43883a36.37357,36.37357,0,0,0-5.07769,4.07478.42622.42622,0,0,0-.12544.188,2.05,2.05,0,0,0,.31345.12544c.1647.065.49041.20488.75233.31345.26161.10857,1.08939.45268,1.8178.752.7284.29964,1.54422.63824,1.8181.75233s.75018.27327,1.0029.37632c.25272.10274.71583.29075,1.06577.43857.34964.14783.89525.38154,1.19091.50145.296.12023.714.2837.94033.37632,1.42523.58242,1.33444.5542,1.44179.43889a7.28183,7.28183,0,0,1,1.50466-.94034,8.01531,8.01531,0,0,1,1.1909-.37632l.62689-.188-.06256-.188a12.09014,12.09014,0,0,0-.62689-1.19121c-.8698-1.48074-1.43535-2.39071-1.69267-2.94613a7.83489,7.83489,0,0,1-.62689-2.13155,2.6696,2.6696,0,0,1,.12544-1.06559c.0595-.012,2.0972,2.396,2.06868,2.44481a2.44178,2.44178,0,0,1-.376-.06257l-.376-.06287.12514.25088a11.57362,11.57362,0,0,0,.8152,1.75522,8.48635,8.48635,0,0,0,1.8178,2.44469,8.27711,8.27711,0,0,0,1.75523,1.00321c.44164.177.48611.22082.62688.50145a3.72473,3.72473,0,0,1,.31345,1.37922v.188l-.376-.188a4.992,4.992,0,0,0-1.50466-.50176,4.07054,4.07054,0,0,0-1.88067,0,3.46973,3.46973,0,0,0-1.37891.56432l-.25088.12544,1.0029.50145c1.5157.74681,4.17477,2.13554,4.95255,2.57013,1.24151.69436,2.26159,1.27433,2.63269,1.44178a4.229,4.229,0,0,0,1.25378.37632c.07913-.01625.12391-.01411-.564-1.8181-.53335-1.39732-1.52613-3.85826-1.94355-4.82681-.66154-1.53563-2.50326-6.11094-2.63269-6.58234a1.47868,1.47868,0,0,1,.06257-.62683l.06256-.43882.188.18807a17.43938,17.43938,0,0,1,1.88067,2.13136,10.094,10.094,0,0,1,.62659,1.06577,1.47341,1.47341,0,0,1-.50145-.188c-.26285-.1328-.48674-.25395-.50146-.25088-.016.004.031.10857.06257.188.0322.07975.33706.87133.68976,1.75523.3527.88421,1.09154,2.64895,1.62979,3.94935,1.0897,2.63269,1.61262,3.89935,1.94324,4.76424a3.62987,3.62987,0,0,0,.25088.62689,1.3757,1.3757,0,0,0,.50145,0,1.54144,1.54144,0,0,0,.75233-.25057c.67841-.40423,1.26972-1.155,1.1909-1.44179-.046-.16408-1.19183-3.1507-1.50435-3.88678-.13494-.31712-.37018-.87317-.50145-1.1909-.13157-.318-.49072-1.16331-.8152-1.94355-.32387-.77993-.74006-1.73621-.87746-2.06867s-.37019-.87317-.50145-1.1909c-.2518-.60972-.86366-2.144-1.25378-3.0718-.12759-.30307-.40883-.878-.56432-1.25374-.15489-.37583-.52691-1.3534-.87747-2.1314-.7876-1.747-.91181-1.95391-.87776-2.57018a4.45752,4.45752,0,0,1,.06256-.56421Zm4.20022.37614c.12238.08225,1.33567,1.42268,1.69236,1.88064a10.01839,10.01839,0,0,1,1.00321,1.5045l.06256.188-.12543-.06269c-.08649-.04552-.307-.20365-.50145-.31342a1.961,1.961,0,0,0-.37633-.18806c-.01195.02245.40209,1.0827,1.31666,3.19707.25517.59033.80569,1.80286,1.1909,2.69566s.71706,1.68806.75233,1.75523l.06257.12544.06257-.12544a2.78679,2.78679,0,0,0,.188-.50145l.12544-.31344-.37632-.37632c-.47967-.47293-.56279-.66983-.43857-1.06547.16316-.52047.49685-.77993.81489-.56432a1.85878,1.85878,0,0,1,.62689,1.62979,1.261,1.261,0,0,0,0,.43888.77731.77731,0,0,1,.12544.25088c.004.12881-.046.15672-.188.12513-.17052-.03742-.15028-.10336-.37631.43888-.05582.13434-.17237.41374-.25057.56433l-.12545.25057.188.43888a11.39018,11.39018,0,0,1,1.06547,4.70168c-.03129.49225.00429.49347-.06257.25057a27.89452,27.89452,0,0,0-1.44178-3.761c-.342-.67658-.3843-.69253-.62689-.37632a9.169,9.169,0,0,1-1.06547,1.19121.717.717,0,0,1-.12544.06257c.0595-.11256.24352-.41312.564-.94034l.62689-1.12834-.188-.564c-1.72671-4.33391-2.78144-6.7606-3.8239-8.96449a11.02585,11.02585,0,0,1-.50145-1.19106c-.08772-.39206-.00123-1.33868.12543-1.25375ZM58.135,35.60254c.07146-.01607-.04417.32863-.188.56417-.17328.28348-.3711.44-2.38212,1.81795-1.6534,1.13282-3.10531,2.19332-3.69877,2.63288-.21408.15868-.42478.31047-.43858.31344a1.669,1.669,0,0,1,.06257-.25075,2.47224,2.47224,0,0,1,.12544-.43883,9.46085,9.46085,0,0,1,1.69235-1.37912C54.22494,38.21315,58.05559,35.61962,58.135,35.60254Zm7.83581,3.63587a1.53772,1.53772,0,0,1,1.00321.12538,1.07424,1.07424,0,0,1,.1877,1.69257.62483.62483,0,0,1-.6269.25075c-.37355-.082-.47169-.133-.62688-.815a5.14422,5.14422,0,0,1-.12514-.94031c.008-.26958.05674-.28516.1877-.31344Zm-5.07768.18807a2.88665,2.88665,0,0,1,.188.75223c.09415.63784.19475.904.43888,1.06572.22726.15065.28553.1059.376-.12538.04048-.10311.09691-.18206.12544-.18807.10274-.02208.13218.36715.06256.62689-.0963.35871-.326.5089-.50144.3761a2.927,2.927,0,0,1-.75233-2.13136c-.00215-.314.02637-.43692.06256-.37613Zm5.57913.37613c-.19322-.02107-.35546-.00794-.376.06269a1.67169,1.67169,0,0,0,.06257.43879c.06808.302.11593.41119.188.43882a.91341.91341,0,0,0,.68946-.25075.33857.33857,0,0,0-.06257-.50148,1.129,1.129,0,0,0-.50145-.18807Zm4.38823.75224.06257.25075a5.02763,5.02763,0,0,0,.376,1.44182.974.974,0,0,0,.50176.50151c.09815.02822.123-.008.1877-.25076.065-.24167.13-.26851.188-.18806a.989.989,0,0,1,.06257.94027c-.09385.1604-.33829.18-.564.06288a1.9932,1.9932,0,0,1-.8149-1.63,5.30457,5.30457,0,0,1,0-.81493v-.31344Zm8.90159,0,.62688.62689a12.03465,12.03465,0,0,1,1.75523,2.00608c.46373.73852.44748.78913-.12513.50145-.26621-.13372-.48857-.25364-.50175-.25088-.02485.00613-.0319.02821.31344.94033.47937,1.26237.60082,1.56171,2.257,5.39113.56095,1.29764,1.11945,2.675,1.50435,3.76134a30.0643,30.0643,0,0,1,1.0029,3.57333,11.46822,11.46822,0,0,1-.188,1.37891c-.02177-.07667-.24719-.59254-.43857-1.12834-.19169-.53549-.40178-1.21115-.50145-1.50435-.936-2.74647-1.07559-3.04888-3.32246-8.33757-.38613-.90844-1.03878-2.43334-1.44209-3.385a20.28618,20.28618,0,0,0-.87746-1.88073,1.6708,1.6708,0,0,1-.188-1.25375l.12544-.43882ZM55.5649,42.3728l.06257.18806a3.095,3.095,0,0,1,.12513.7524,2.39759,2.39759,0,0,0,.37632,1.44178c.26652.303.31314.30915.50145.12513l.188-.188.06257.25088a.534.534,0,0,1-.81489.62688c-.25058-.15733-.36375-.40392-.50146-1.06577a6.17336,6.17336,0,0,1-.06287-1.81792l.06287-.31344Zm20.49874,1.379c-.3162-.012-.29382.27848.06257.50145.25793.16194.38368.1374.31345-.12513a.52271.52271,0,0,0-.376-.37632Zm-23.63319.37632c.0687-.07023.16593.42416.188.94034a2.07372,2.07372,0,0,0,.376,1.31634c.25824.30884.326.34013.50145.188.07974-.069.15672-.14476.188-.12544.09017.05674.09293.45637,0,.62689a.54845.54845,0,0,1-.68977.188c-.35024-.20364-.55727-.73178-.62658-1.56692a6.525,6.525,0,0,1,.06257-1.56722Zm12.66293.62689c.03558-.0181.05275-.00613.12513,0,.29136.02055.42386.09324.50176.376a1.14237,1.14237,0,0,1,.06256.31344c-.01226.0224-.15886-.01809-.31344-.06256-.56463-.16071-.56739-.12759-.188,1.37891l.31345,1.25378-.37632-.31345c-.76674-.66952-1.2228-.9023-1.62979-.81489-.31375.06747-.57966-.10919-.68946-.50145-.06747-.23646-.008-.27542.31345-.25088a3.10539,3.10539,0,0,1,1.37922.56432c.20978.14568.38122.21592.376.188-.004-.02791.004-.07913,0-.12544s-.027-.29228-.06257-.50145a2.12378,2.12378,0,0,1,.12513-1.37922C65.05934,44.82312,65.05811,44.77344,65.09338,44.755Zm-6.64491.68945c.04723-.02146.05183-.01195.12544,0a.60473.60473,0,0,1,.564.75233l-.06257.188-.25088-.188c-.62075-.34932-.73331.008-.376,1.31635.24935.91273.3892,1.788.25088,1.8181a2.67316,2.67316,0,0,1-.43888-.43888c-.641-.73485-.98389-.96242-1.37922-.87777-.40484.08679-.76736-.26652-.8149-.8149-.01809-.19046.04325-.2061.25057-.25057.39595-.08526.77012.142,1.50466.8149.47692.43673.53028.39778.376-.18832-.25-.94953-.22849-1.68775.06288-2.0058a.507.507,0,0,1,.1877-.12544ZM84.2129,46.82371a2.57013,2.57013,0,0,1,.12544.68946,8.3814,8.3814,0,0,0,.188.87777,1.79507,1.79507,0,0,0,.50145.87746l.188.12544.06257-.12544c.08649-.20273.23554-.15795.31344.12544.08189.29749-.03772.51832-.25057.564-.11164.02423-.1926.01013-.37632-.12513-.46587-.34227-.73178-1.01271-.81489-2.38212-.02669-.43919.02913-.63578.06256-.62689Zm-14.60616.188.06257.25057c.18831,1.26329.20518,1.46141.37631,1.75554a1.79723,1.79723,0,0,0,.752.564c.027-.00613.0549-.15426.06257-.31344.01411-.29934,0-.346.12544-.25057a1.12518,1.12518,0,0,1,.188,1.06546.44738.44738,0,0,1-.564.12544,2.70809,2.70809,0,0,1-1.00321-1.69266,3.681,3.681,0,0,1,0-1.25378v-.25057Zm8.21213.87746a4.47716,4.47716,0,0,1,.06257.62689c.07759,1.05443.32325,1.61231.75233,1.88067l.188.06287.06257-.25088.12544-.25088.06256.31345a1.30178,1.30178,0,0,1,0,.62689c-.05858.19843-.07238.21254-.25087.25088a.39507.39507,0,0,1-.376-.06257,1.91692,1.91692,0,0,1-.56432-1.19121,6.14421,6.14421,0,0,1-.12544-1.88067c.02392-.18862.03742-.20273.06257-.12544Zm-28.96175.75233-.06256.188a9.09288,9.09288,0,0,0-.68946,2.633,2.3639,2.3639,0,0,0,.62689,1.56723c.19813.10121.39043.016.564-.31345.207-.39318.34472-.61615.37631-.50145a2.43748,2.43748,0,0,1-.06256,1.06547,5.07813,5.07813,0,0,1-.8152,1.44209,1.43233,1.43233,0,0,0-.376.8149c-.346,2.09321-.32295,3.1553.06257,4.01191a3.35278,3.35278,0,0,0,.87777,1.12833,1.86179,1.86179,0,0,0,1.81779,0,17.71111,17.71111,0,0,0,3.385-4.13734c.936-1.52214,2.32354-3.66933,2.445-3.82391l.12544-.188L55.18858,51.588c-2.26956-1.04768-5.07707-2.34286-5.8297-2.69556l-.50176-.25088Zm3.6359,2.633a.36908.36908,0,0,1,.188.06256l.188.12544.12513.68946.188.62689.188.188c.42478.299.74191.74375.62689.94034-.035.06042-.1144.07391-.31344-.06257-.55236-.37846-.5039-.39932-.68946.188A12.52479,12.52479,0,0,1,50.2986,58.3583l-.37632.43858.25088-.43858c.13556-.2383.60634-1.036,1.06577-1.8181a17.65042,17.65042,0,0,0,1.44179-2.821l.06256-.25057-.25057-.12544a1.514,1.514,0,0,1-.68976-.87777.8566.8566,0,0,1,.50145-1.12834c.096-.03251.13035-.06839.188-.06256Zm14.60616.06256a2.124,2.124,0,0,1,.06257.56433c.06716.9845.23769,1.432.62688,1.69235l.12545.06288.12543-.25088c.09079-.17206.13281-.22236.188-.188.11287.06993.1144.51464,0,.75233-.12881.26468-.27726.35853-.50145.25057-.31682-.15181-.47324-.31252-.62689-.87746a4.11542,4.11542,0,0,1-.12544-1.56722c.0273-.31621.09722-.45361.12544-.43889Zm-14.7316.68977c-.04233.00981-.06839.04845-.12513.12513-.07821.1052-.07944.16286,0,.25088a.704.704,0,0,0,.50145.188c.0641-.012.11777-.09783.06256-.25057a.495.495,0,0,0-.25087-.25088C52.46848,52.04554,52.41021,52.017,52.36758,52.02684Zm25.8273.12513c.11716-.07943.36927.02484,1.12865.50176l.68946.43857-.12545.43889a1.40512,1.40512,0,0,1-.43888.81489c-.05643.02975-.32142-.10949-.81489-.376-.41006-.22174-.74313-.37816-.75233-.37632a5.80185,5.80185,0,0,0-.25057.56433,1.86015,1.86015,0,0,1-.31345.56432,3.81606,3.81606,0,0,1-1.56722-.87777,2.96991,2.96991,0,0,1,.12544-.68945l.188-.62689.1877.06256c.10274.03343.45944.25579.8149.43889l.62688.31344.12544-.12544c.04386-.08035.11471-.33491.188-.564a2.17355,2.17355,0,0,1,.188-.50176Zm-4.95224.37632c.02177.0141.01809.127,0,.25057-.03067.20088-.10734.34319-.8149,1.00321-.43551.40606-.85691.79741-.94033.87746L71.362,54.785v-.188a.60145.60145,0,0,1,0-.25088c.06318-.10673,1.29426-1.34395,1.63009-1.62979C73.13836,52.59147,73.22178,52.5151,73.24264,52.52829Zm-14.66873.81489-.25088.25057a25.34856,25.34856,0,0,0-3.13445,4.51367c-.26191.41926-.955,1.435-1.25378,1.8178a10.68807,10.68807,0,0,1-2.06867,2.0061c-.10182.05092-.19537.1325-.25057.43889a9.14687,9.14687,0,0,0,0,3.573,3.10615,3.10615,0,0,0,1.56691,2.06868,1.64078,1.64078,0,0,0,1.4421-.43858c.31743-.24719.40024-.3481,1.06546-1.50465A10.55718,10.55718,0,0,1,57.44526,63.624a20.86241,20.86241,0,0,1,3.07189-2.38212,19.67383,19.67383,0,0,0,3.69846-2.94644c.25579-.27879.44164-.49133.43889-.50145a6.77239,6.77239,0,0,0-1.06578-1.25378,17.19431,17.19431,0,0,0-4.26279-2.821Zm1.44179,3.32246c.07452-.07607.44839.06655,1.12833.50145l.68946.43888-.06256.25057c-.21653.78791-.37694.97039-.56433,1.00321a2.34185,2.34185,0,0,1-.564-.25088c-.88451-.48151-.95444-.48765-1.0032-.376-.023.05275-.14262.30087-.25057.564s-.17881.49961-.188.50145a5.0167,5.0167,0,0,1-1.62979-.8149c-.06778-.07483-.06625-.21039.06257-.68945.08556-.32357.17113-.6594.188-.68946.04447-.08066.24843.00092,1.0029.376a6.0574,6.0574,0,0,0,.68946.31345c.05766-.012.16531-.24045.31345-.68946a2.13289,2.13289,0,0,1,.188-.43888Zm18.17918,1.1909a.75132.75132,0,0,0-.376.31345,1.40075,1.40075,0,0,0-.06257,1.50466,5.71407,5.71407,0,0,0,1.19091,1.75522c.07054.05429.34136-.20426.8152-.68945.26683-.27388.53918-.71583.50145-.87777a2.99645,2.99645,0,0,0-1.56722-1.94323.83548.83548,0,0,0-.50145-.06288Zm3.6359.37632a1.70208,1.70208,0,0,1,.06256.43889,2.25035,2.25035,0,0,0,.68977,1.88035c.1923.11318.2656.01626.25057-.25057-.00982-.181.07422-.2748.12544-.12544a1.08906,1.08906,0,0,1-.06257.87777.31369.31369,0,0,1-.25057.188c-.17236.03711-.24934.06379-.37631-.06288a2.33851,2.33851,0,0,1-.43889-1.25377,8.1567,8.1567,0,0,1-.06256-1.56692C81.78232,58.20158,81.81361,58.16661,81.83078,58.23286Zm-25.263,1.19091a.93971.93971,0,0,1,.43889.188c.21008.13219.26253.15642.31344.37632a.75447.75447,0,0,1,0,.31344c-.03435.11624-.16592.08649-.37632-.06287a.62481.62481,0,0,0-.31344-.12513c-.09937.02147-.09293.41466.06257,1.25378a4.85222,4.85222,0,0,1,.12543,1.44178c-.02637.11931.00031.11042-.25087-.18831a5.17207,5.17207,0,0,0-.62689-.62689c-.35056-.27173-.40515-.26345-.62659-.188-.20487.06962-.24444.02484-.50175-.12514-.30394-.17727-.31253-.29105-.31345-.68976-.00061-.27173.07852-.357.31345-.31345a5.02714,5.02714,0,0,1,1.31665.8149c.31344.25947.41925.28646.376.12544a7.70548,7.70548,0,0,1-.188-.75233,2.01568,2.01568,0,0,1,0-1.0029C56.38624,59.48511,56.36937,59.43327,56.5678,59.42377Zm18.49294.06287c.06073.00031.15458-.00153.1877.06257.16378.31651.17758.45851.06257.50144a.28547.28547,0,0,1-.25058-.06256c-.09385-.092-.08556-.07974-.25088.06256-.19107.16409-.17021.22083-.06256.37632.16684.24015.67688.24506,1.06577,0,.37939-.23922.47017-.24014.50145-.12544.05306.18648-.18524.49594-.564.8149a3.59575,3.59575,0,0,0-.50176.50145c-.17114.23125-.545.5082-.564.43888a3.14491,3.14491,0,0,1,.25057-.56432c.107-.21469.08219-.28768-.25057-.564-.36314-.30148-.40945-.49409-.25088-.81489.203-.41036.4444-.62781.62688-.62689Zm-8.90189.752a.20792.20792,0,0,0-.06257.18831.67687.67687,0,0,0,.56432.376c.09355-.02024.13863-.01625.06257-.188C66.60571,60.35183,66.27846,60.16076,66.15885,60.23866Zm-2.25668,2.13155c.04753-.0181.04508.06165.06256.12544.0457.16071-.16991.55205-.376.752-.1052.10183-.78422.67167-1.56722,1.25378a23.86274,23.86274,0,0,0-2.633,2.13155l-.12544.12544.25088.188c.40515.38675.48887.80048.12544.68946a2.73237,2.73237,0,0,1-.37632-.188c-.19537-.11531-.17727-.1693-.25057-.43888a1.24409,1.24409,0,0,1-.06257-.50145c.07361-.44717.20242-.61524,1.50435-1.56723.67473-.49316,1.36971-.96119,1.50466-1.06577.13495-.10428.45729-.40607.75233-.62689.29474-.22052.70509-.49164.87746-.62689A3.81973,3.81973,0,0,1,63.90217,62.37021Zm-10.53138.31344c.00981.05123-.00184.20795,0,.43889.004.998.1972,1.56354.50145,1.81779.08955.07453.10121.07821.188,0a.68237.68237,0,0,0,.1877-.25057l.06288-.18831.06256.31345a.72122.72122,0,0,1,0,.56432c-.10244.24965-.17911.2975-.37632.31344a.67859.67859,0,0,1-.62689-.43888,1.88144,1.88144,0,0,1-.188-.87747,4.69368,4.69368,0,0,1,.12544-1.63009c.02944-.06379.05336-.11409.06256-.06257Zm14.04184.43889c.06777-.054.19291-.02945.43888,0a1.26323,1.26323,0,0,1,1.19121.94033,1.0734,1.0734,0,0,1-.8152,1.19091c-.24474.05275-.26836.04416-.43858-.06257-.15886-.09968-.26284-.12666-.31344-.31344a8.08483,8.08483,0,0,1-.12544-1.37922c-.01012-.21806-.00613-.32234.06257-.376Zm.25087.564c-.13647.03712-.14016.19322-.06256.56433.06839.32908.09446.38.188.43888a.66.66,0,0,0,.68946-.12544,2.58355,2.58355,0,0,0,.25088-.25087c.0736-.096.05213-.10521-.12544-.25058a1.53331,1.53331,0,0,0-.75233-.37632.524.524,0,0,0-.188,0Zm12.97637,1.94324c.00583.01227.05521-.02576.06257,0a6.69909,6.69909,0,0,1,.06257.68976,2.08435,2.08435,0,0,0,.43888,1.44179c.24475.22788.34044.1785.43858-.188a1.86787,1.86787,0,0,1,.12544-.37632c.05981-.08188.09231-.05029.12543.18831a2.15564,2.15564,0,0,1-.12543.94.44517.44517,0,0,1-.50145.18831c-.39288-.10919-.66247-1.03572-.68946-2.257a3.0329,3.0329,0,0,1,.06257-.62689ZM62.523,66.00611a.88078.88078,0,0,1,.43888.12543c.33583.17789.41619.249.37632.564l-.06287.188-.31345-.12513c-.36987-.16071-.491-.18-.50145-.06288-.00184.03988.15979.50115.31345,1.0029a3.82969,3.82969,0,0,1,.25088,1.25378,2.66183,2.66183,0,0,1,0,.43889c-.0181.03251-.14446-.0227-.25088-.12544-.103-.09906-.26407-.25855-.376-.376-.40852-.42785-.80569-.63364-1.12833-.56432-.23248.05-.40484-.08619-.50145-.43859-.10919-.39686-.04938-.464.12513-.50145.2656-.05735.82072.24843,1.44178.8149a1.10453,1.10453,0,0,0,.25088.188c.06686-.01411.02515-.26529-.12544-.8149a2.91,2.91,0,0,1-.12544-1.37922C62.37052,66.084,62.41775,66.01255,62.523,66.00611Zm16.17369,1.25378a.83546.83546,0,0,1,.68945.31344c.15734.17912.17084.17329.12544.376a1.13631,1.13631,0,0,1-.06256.25088,1.92042,1.92042,0,0,1-.37632-.12544c-.34411-.146-.53059-.161-.564,0a6.58582,6.58582,0,0,0,.188.94034,4.52879,4.52879,0,0,1,.1877,1.75523c-.01779.03158-.22788-.11317-.43858-.376-.4901-.61032-.85691-.93512-1.25378-.94033-.40269-.00613-.484-.01411-.68976-.25088a.98471.98471,0,0,1-.25057-.81489c.03159-.1509.05765-.12912.188-.12544.47445.012.98511.31682,1.75522,1.12834l.376.37632-.06256-.25088c-.0181-.134-.06932-.48919-.12544-.8149a3.60842,3.60842,0,0,1-.06257-.8149C78.359,67.57609,78.52612,67.29638,78.69664,67.25989ZM56.06635,68.6388a2.147,2.147,0,0,1,0,.43889,1.62518,1.62518,0,0,0,.25057,1.19121c.173.17236.25824.15672.43889,0,.07054-.06134.10182-.0776.12544-.06288a.59664.59664,0,0,1,.12544.43889c-.08373.40085-.31468.526-.62689.376a1.728,1.728,0,0,1-.56433-1.56692C55.83142,69.11908,56.00838,68.60261,56.06635,68.6388ZM74.559,70.08089a.45751.45751,0,0,1,.37632.25057c.02393.08618.016.10306-.12544.12544-.27388.04355-.2702.012-.31344.188l-.06257.188v-.188c-.01411-.21991.04417-.54654.12544-.564Zm1.56723.87746c.04754-.02055.06471.01626.12544.06257.06777.05122.08434.05122,0,.12544-.12821.11347-.18371.23125-.12544.31344.07545.10612.19935.07391.43888-.06256a.90616.90616,0,0,1,.25088-.12544c.08649.05428-.131.39287-.50145.68945-.56371.45116-.78882.59162-1.00321.56433a.74839.74839,0,0,0-.43888.12543,1.02079,1.02079,0,0,1-.752.12545.882.882,0,0,0-.37632.06256.54631.54631,0,0,1-.43858,0c-.1693-.08189-.12115-.09538-.12544-.376-.008-.56095.1555-.87746.376-.68976.14323.12175.13526.14415-.06256.31344-.24843.21285-.31192.3846-.12544.50145.08035.05061.2061.08956.25088.06287a2.94244,2.94244,0,0,0,.564-.43888c.03681-.05091-.008-.11808-.12544-.31344-.17543-.29044-.19076-.30547,0-.25088.12636.0365.177.06563.25088.43888.085.4349.12391.4395.376.31345.13218-.06594.15334-.21745.188-.68946.02024-.26959.06655-.34043.188-.43888.16715-.13526.34075-.12882.37632,0,.012.04968-.05459.04631-.12544.06257-.14476.03373-.31866.30945-.25088.37631.02669.02668.11317.016.188,0,.12881-.0276.15918-.02116.188.188.02975.21652.03373.22143.188.188a.5279.5279,0,0,0,.25057-.12544c.10183-.09937.12483-.14966.06288-.376a.51993.51993,0,0,1,0-.43888.47259.47259,0,0,1,.18769-.188Zm-12.224,1.12834a3.697,3.697,0,0,1,.12544.56432c.12605.61371.25977.86152.56432,1.06547l.18769.12544.12545-.25057c.1558-.25947.18187-.29013.25088.06257.03649.18432-.09692.66982-.188.68945a.51144.51144,0,0,0-.12544.06287.55426.55426,0,0,1-.188,0,.71261.71261,0,0,1-.25058-.06287,1.55509,1.55509,0,0,1-.43888-.752,3.1396,3.1396,0,0,1-.06257-1.50466Z"/></svg>