<svg id="Beranda" xmlns="http://www.w3.org/2000/svg" viewBox="0 0 128 128"><defs><style>.cls-1{fill:#f89938;}</style></defs><path class="cls-1" d="M110.39712,69.32958,70.60781,13.891a8.13357,8.13357,0,0,0-13.21563,0L17.60289,69.32958a8.13356,8.13356,0,0,0,6.6078,12.87612h4.91369a13.12865,13.12865,0,0,0-.361,3.05138v19.13934A13.10357,13.10357,0,0,0,41.867,117.5h9.24984V94.72608A2.94707,2.94707,0,0,1,54.06388,91.779h2.33321a2.94709,2.94709,0,0,1,2.94709,2.94707V99.76a2.94706,2.94706,0,0,0,2.94706,2.94709h5.32482A2.94708,2.94708,0,0,0,70.56315,99.76v-5.034A2.94707,2.94707,0,0,1,73.51022,91.779h2.33305a2.94708,2.94708,0,0,1,2.94709,2.94707V117.5h7.54742a13.10357,13.10357,0,0,0,13.10356-13.10358V85.25708a13.12811,13.12811,0,0,0-.361-3.05138h4.70894A8.13357,8.13357,0,0,0,110.39712,69.32958Z"/></svg>