<svg id="Default_akun" data-name="Default akun" xmlns="http://www.w3.org/2000/svg" viewBox="0 0 128 128"><defs><style>.cls-1{fill:#fff;}</style></defs><path class="cls-1" d="M64,0a64,64,0,1,0,64,64A64,64,0,0,0,64,0Zm0,12.80491A22.02015,22.02015,0,1,1,41.97978,34.82506,22.02014,22.02014,0,0,1,64,12.80491ZM89.26416,99.71408H38.73576A20.54557,20.54557,0,0,1,18.1902,79.16852v-.00008A20.54552,20.54552,0,0,1,38.73576,58.62288h50.5284a20.54552,20.54552,0,0,1,20.54557,20.54556v.00008A20.54557,20.54557,0,0,1,89.26416,99.71408Z"/></svg>