<svg id="Donasi" xmlns="http://www.w3.org/2000/svg" viewBox="0 0 128 128"><defs><style>.cls-1{fill:#f89938;}</style></defs><path class="cls-1" d="M112.57339,84.899H97.127a44.59314,44.59314,0,0,1-12.095,9.54532h20.59983a2.47681,2.47681,0,0,1,2.47681,2.47681V100.77a2.4768,2.4768,0,0,1-2.47681,2.47681H23.90774A2.47681,2.47681,0,0,1,21.43093,100.77V96.9211a2.47682,2.47682,0,0,1,2.47681-2.47681H42.968A44.59314,44.59314,0,0,1,30.873,84.899H15.42661A4.92661,4.92661,0,0,0,10.5,89.82559v17.55108a4.92662,4.92662,0,0,0,4.92661,4.92662h97.14678A4.92662,4.92662,0,0,0,117.5,107.37667V89.82559A4.92661,4.92661,0,0,0,112.57339,84.899Z"/><path class="cls-1" d="M64,15.69677a39.6182,39.6182,0,1,0,39.61822,39.61816A39.61819,39.61819,0,0,0,64,15.69677ZM64,92.1137a36.79877,36.79877,0,1,1,36.79876-36.79877A36.79873,36.79873,0,0,1,64,92.1137Z"/><path class="cls-1" d="M58.35082,44.98547H50.52074a.48916.48916,0,0,0-.55274.55322v6.25488a.48877.48877,0,0,0,.55274.55322h7.83008a.48877.48877,0,0,0,.55273-.55322v-6.2124C58.90355,45.18469,58.719,44.98547,58.35082,44.98547Z"/><path class="cls-1" d="M81.11351,44.98547h-7.8291c-.33984,0-.51074.18506-.51074.55322v6.25488c0,.36914.1709.55322.51074.55322h7.8291q.59619,0,.5957-.55322v-6.2124A.52666.52666,0,0,0,81.11351,44.98547Z"/><path class="cls-1" d="M64,19.81713a35.49778,35.49778,0,1,0,35.49786,35.4978A35.49786,35.49786,0,0,0,64,19.81713Zm-.033,47.975a1.91963,1.91963,0,0,1-1.61719.89355H61.07347a1.98566,1.98566,0,0,1-1.085-.34082,1.85005,1.85005,0,0,1-.74414-.85058l-4-9.57373a.76786.76786,0,0,0-.76562-.50977h-3.958a.48881.48881,0,0,0-.55274.55273v8.76514a1.96052,1.96052,0,0,1-1.957,1.957h-1.1914a1.74979,1.74979,0,0,1-1.34082-.57422,1.96271,1.96271,0,0,1-.53125-1.38281V41.87951a1.94512,1.94512,0,0,1,.53125-1.4043,1.78363,1.78363,0,0,1,1.34082-.55273H58.35082a5.353,5.353,0,0,1,2.80761.76562,5.866,5.866,0,0,1,2.043,2.04248,5.43381,5.43381,0,0,1,.76563,2.85059v6.2124a5.38507,5.38507,0,0,1-.87207,3,5.89909,5.89909,0,0,1-2.27637,2.06348.38823.38823,0,0,0-.25586.27637.49943.49943,0,0,0,.043.44726L64.095,66.005A1.7486,1.7486,0,0,1,63.967,67.79211ZM86.7307,51.79357a5.47815,5.47815,0,0,1-.74512,2.8086,5.69411,5.69411,0,0,1-2.02051,2.042,5.43672,5.43672,0,0,1-2.85156.7666h-7.8291c-.33984,0-.51074.18457-.51074.55273v8.76514a1.96052,1.96052,0,0,1-1.957,1.957H69.6682a1.96052,1.96052,0,0,1-1.958-1.957V41.87951a1.86763,1.86763,0,0,1,.57422-1.4043,1.92594,1.92594,0,0,1,1.38379-.55273H81.11351a5.436,5.436,0,0,1,2.85156.76562,5.69167,5.69167,0,0,1,2.02051,2.04248,5.55785,5.55785,0,0,1,.74512,2.85059Z"/></svg>