<svg id="fb" xmlns="http://www.w3.org/2000/svg" viewBox="0 0 128 128"><defs><style>.cls-1{fill:#f36c23;}</style></defs><path class="cls-1" d="M59.2535,11.18926c-.59614.08516-2.51011.38323-4.25486.63872C44.74418,13.31723,33.80841,18.9336,26.06407,26.72053a52.44581,52.44581,0,0,0-1.14861,73.39933,53.24206,53.24206,0,0,0,29.95543,16.12632,59.30713,59.30713,0,0,0,26.08381-1.91507A52.89342,52.89342,0,0,0,65.63634,11.14667,54.98183,54.98183,0,0,0,59.2535,11.18926ZM72.231,18.67811a49.107,49.107,0,0,1,25.99864,14.0846,46.26688,46.26688,0,0,1,10.808,43.06066,55.94274,55.94274,0,0,1-7.574,15.53128,47.745,47.745,0,0,1-26.38187,17.53041c-2.76561.76538-4.51035.89312-10.93577.89312-6.97788.04258-8.04242-.08516-11.82888-1.106a56.77677,56.77677,0,0,1-14.80739-6.68091A59.94548,59.94548,0,0,1,25.29761,89.6514a43.655,43.655,0,0,1-7.6166-23.233A41.93384,41.93384,0,0,1,19.68124,49.994C27.04235,27.82655,48.998,14.76391,72.231,18.67811Z"/><path class="cls-1" d="M63.38062,28.38011a12.99742,12.99742,0,0,0-6.16993,3.531c-2.80818,2.723-3.53207,5.19165-3.829,12.936l-.21291,6.50949H46.062V62.419h7.23447l.08516,18.382.12774,18.42463,6.9353.12774,6.89381.08516V62.419H78.31576l.25549-1.19118c.12775-.63872.34065-3.10626.511-5.53121l.25549-4.34H67.3385V47.35719c0-4.63809.4684-6.29767,2.00024-7.10562,1.106-.59614,4.29744-.76537,7.78693-.38323l1.91507.2129.808-5.19165c.46839-2.89334.72388-5.36088.55356-5.48862C79.46436,28.42269,66.23139,27.65623,63.38062,28.38011Z"/></svg>