<svg id="FAQ" xmlns="http://www.w3.org/2000/svg" viewBox="0 0 128 128"><defs><style>.cls-1{fill:#f89938;}</style></defs><path class="cls-1" d="M117.5,95.57445l-7.48864-12.97072a8.702,8.702,0,0,0,.05773-.98556V51.14652a8.62249,8.62249,0,0,0-8.62248-8.62248h-3.1871a8.63761,8.63761,0,0,1,.25713,2.09284V75.08853A8.62247,8.62247,0,0,1,89.89417,83.711H35.48651a8.625,8.625,0,0,0,8.36534,6.52964h57.59476a8.71752,8.71752,0,0,0,.90608-.04763Z"/><polygon class="cls-1" points="51.034 55.421 56.343 55.421 53.689 49.012 51.034 55.421"/><ellipse class="cls-1" cx="72.72497" cy="53.57967" rx="5.23747" ry="5.35711"/><path class="cls-1" d="M85.24432,32.42555H27.64955A8.62247,8.62247,0,0,0,19.02708,41.048V71.51968a8.68877,8.68877,0,0,0,.08733,1.21857L10.5,83.83681l17.77669-3.69466H85.24432a8.62247,8.62247,0,0,0,8.62247-8.62247V41.048A8.62247,8.62247,0,0,0,85.24432,32.42555ZM43.57294,55.85166H35.82427v6.09849H31.94994v-16.741H44.60132v3.109H35.82427v4.4244h7.74867Zm15.473,6.09849L57.56314,58.3628H49.79055l-1.48277,3.58735h-3.97l7.46169-16.741H55.626l7.4856,16.741Zm19.15581,3.85048c-2.48723,0-4.23313-.90885-6.816-3.63524a8.54613,8.54613,0,0,1-7.82037-8.58572c0-4.97446,3.87423-8.65747,9.15964-8.65747,5.26145,0,9.15964,3.6591,9.15964,8.65747a8.42563,8.42563,0,0,1-5.9788,8.17915,3.09228,3.09228,0,0,0,2.3676,1.17187,3.63528,3.63528,0,0,0,2.72638-1.24361l1.72193,2.05674A5.67119,5.67119,0,0,1,78.20172,65.80063Z"/></svg>