<svg id="Layer_1" data-name="Layer 1" xmlns="http://www.w3.org/2000/svg" viewBox="0 0 126 126"><defs><style>.cls-1{fill:#f58634;}</style></defs><path class="cls-1" d="M49.029,72.949l-.131.015c-.484,1.614-.952,3.233-1.46,4.837-.137.431-.039.5.326.5.827-.019,1.654-.008,2.48,0,.22,0,.44.018.325-.352Q49.8,75.445,49.029,72.949Z"/><path class="cls-1" d="M107.114,21.7H18.886A9.386,9.386,0,0,0,9.5,31.088V94.912a9.386,9.386,0,0,0,9.386,9.386h88.228a9.386,9.386,0,0,0,9.386-9.386V31.088A9.386,9.386,0,0,0,107.114,21.7ZM29.5,43.157c.19-.24.386-.185.615-.147A179.768,179.768,0,0,1,49.4,47.535c2.361.668,4.7,1.425,7.051,2.142.134.04.258.154.445.046a22.277,22.277,0,0,0-1.071-3.739c-.133-.371-.284-.277-.505-.146Q54.2,46.5,53.073,47.15c-.161.093-.318.226-.523.149-.792-.3-1.586-.588-2.529-.938,1.63-.98,3.108-1.925,4.636-2.76a1.9,1.9,0,0,1,1.89.355,5.06,5.06,0,0,1,1.774,2.149,18.683,18.683,0,0,1,1.43,4.286c.083.361.212.575.54.636a.641.641,0,0,1,.117.045,8.276,8.276,0,0,0,2.627.942A8.13,8.13,0,0,0,65.6,51.08c2.622-.987,5.281-1.836,7.948-2.657.094-.028.187-.062.279-.093-.019-.267-.207-.311-.33-.4-1.315-.991-2.642-1.963-3.949-2.968-.309-.237-.571-.324-.9-.083a3.488,3.488,0,0,1-.443.246c-1.661.893-1.661.893-3.09-.62a42.021,42.021,0,0,1,4.551-2.556c.254-.124.386.086.544.2q3.392,2.406,6.769,4.835a1.072,1.072,0,0,0,.47.218,1.023,1.023,0,0,0,.509-.034c5.412-1.514,10.858-2.852,16.363-3.89,1.969-.371,1.965-.4,3.282,1.23l1.172,1.445c-1.278.191-2.465.338-3.643.55-9.682,1.739-19.267,3.929-28.505,7.676a21.515,21.515,0,0,0-3.156,1.586.7.7,0,0,1-.807.077,49.739,49.739,0,0,0-10.861-4.387,165.712,165.712,0,0,0-21.52-5.059c-.978-.164-1.962-.277-3.061-.43C28.044,44.959,28.783,44.067,29.5,43.157ZM39.864,84.03c-.785-.038-1.574-.035-2.36,0-.427.018-.573-.116-.566-.608.026-1.736,0-3.472.019-5.207.006-.45-.063-.636-.527-.625-1.428.036-2.857.025-4.285,0-.353,0-.452.11-.448.5.017,1.758-.008,3.517.017,5.275.007.488-.074.7-.569.667-.826-.048-1.656-.025-2.484-.007-.318.008-.434-.1-.433-.463q.013-7.331,0-14.662c0-.366.114-.47.432-.463.87.018,1.74.024,2.609,0,.375-.011.444.158.441.525-.014,1.667.006,3.335-.014,5-.006.437.093.588.512.579,1.407-.029,2.816-.026,4.224,0,.4.007.532-.115.525-.57-.023-1.621.016-3.243-.022-4.864-.013-.57.164-.695.636-.672.786.039,1.575.034,2.36,0,.39-.017.487.121.484.538-.017,2.421-.008,4.842-.008,7.263,0,2.4-.013,4.8.01,7.193C40.422,83.913,40.3,84.052,39.864,84.03Zm15.548,0c-.827-.037-1.656-.029-2.484,0a.58.58,0,0,1-.673-.5c-.226-.747-.225-1.794-.778-2.145s-1.408-.1-2.132-.105c-.848-.006-1.7.011-2.546-.008a.491.491,0,0,0-.574.448c-.145.59-.376,1.155-.52,1.745-.1.424-.282.583-.69.565-.848-.036-1.7-.038-2.546,0-.5.022-.537-.131-.377-.611q2.007-6.04,3.98-12.095c.267-.811.543-1.619.789-2.438.1-.332.249-.469.576-.451.516.029,1.034.008,1.665.008.541.061,1.346-.292,1.809.133.427.391.5,1.251.722,1.911,1.41,4.289,2.8,8.585,4.236,12.864C56.085,84,55.927,84.052,55.412,84.029Zm18.051-.47c0,.357-.1.476-.424.468-.848-.022-1.7-.031-2.546,0-.424.016-.516-.156-.513-.593.018-2.512.009-5.025.009-7.537v-.66l-.1-.027L68.6,79c-.5,1.49-1.013,2.977-1.5,4.474-.128.393-.3.586-.707.555a12.147,12.147,0,0,0-1.738,0c-.4.026-.569-.134-.706-.547-.87-2.621-1.77-5.231-2.661-7.844a.871.871,0,0,0-.271-.434c0,2.617.005,5.234,0,7.85,0,1.109.139.952-.9.963-.663.008-1.327-.031-1.987.013-.462.03-.594-.117-.59-.639.023-3.2.012-6.395.012-9.592,0-1.6.015-3.2-.01-4.8-.007-.458.122-.582.524-.57.972.029,1.947.039,2.919,0,.465-.02.683.139.857.625,1.13,3.147,2.292,6.278,3.446,9.414.06.165.136.324.264.627.428-1.164.814-2.212,1.2-3.262.829-2.276,1.667-4.549,2.474-6.836.153-.434.345-.582.766-.567,1.013.038,2.029.024,3.043.006.317-.006.432.091.431.46Q73.45,76.228,73.463,83.559Zm5.308.472a21.709,21.709,0,0,0-2.3,0c-.485.026-.634-.125-.631-.68.023-3.9.012-7.808.012-11.712,0-.867.025-1.736-.009-2.6-.019-.495.145-.624.569-.606.785.033,1.573.037,2.358,0,.439-.022.557.133.553.61-.021,2.4-.01,4.794-.01,7.192s-.012,4.794.01,7.191C79.331,83.906,79.205,84.052,78.771,84.031ZM97.7,83.454c.006.451-.111.591-.519.575-.807-.033-1.616-.038-2.422,0-.452.022-.549-.162-.546-.626.018-2.579.009-5.16.009-7.74v-.447l-.1-.025q-.825,2.436-1.649,4.873c-.388,1.149-.782,2.3-1.152,3.451-.12.376-.29.538-.671.514-.741-.047-1.633.239-2.188-.123s-.6-1.43-.864-2.191q-1.041-3.022-2.07-6.051a.908.908,0,0,0-.28-.458v.636c0,2.534-.009,5.068.008,7.6,0,.447-.112.6-.524.583-.827-.032-1.656-.025-2.484,0-.34.009-.466-.09-.465-.493q.016-7.294,0-14.59c0-.463.17-.514.515-.508.993.019,1.988.029,2.98,0,.414-.013.608.123.767.564,1.133,3.144,2.3,6.274,3.458,9.406.075.2.089.452.323.6q1.636-4.491,3.264-8.967c.576-1.588.573-1.589,2.1-1.589.642,0,1.286.032,1.925-.011.46-.031.594.114.59.638-.024,3.105-.012,6.21-.012,9.315C97.686,80.075,97.672,81.765,97.7,83.454Zm2.582-32.775c-4.874,1.169-9.6,2.888-14.359,4.514a130.8,130.8,0,0,1-14.81,4.5c-3.326.713-6.662,1.451-10.088,1.17A49.282,49.282,0,0,1,51.27,58.91c-5.755-1.677-11.368-3.867-17.059-5.776A64.666,64.666,0,0,0,22.035,49.99c-.1-.013-.2-.044-.351-.077.041-.095.056-.137.076-.177a1.607,1.607,0,0,1,2.053-.879A133.823,133.823,0,0,1,41.841,54.1,152.053,152.053,0,0,0,56.906,58.62a26.908,26.908,0,0,0,8.837.269c6.608-.692,12.918-2.819,19.231-4.925a146.035,146.035,0,0,1,14.585-4.383c.993-.22,2.008-.34,2.986-.617.865-.244,1.359.151,1.771.964C102.952,50.141,101.607,50.36,100.278,50.679Z"/></svg>