<svg id="Info_akun" data-name="Info akun" xmlns="http://www.w3.org/2000/svg" viewBox="0 0 128 128"><defs><style>.cls-1{fill:#f89938;}</style></defs><circle class="cls-1" cx="53.503" cy="31.16912" r="20.66912"/><path class="cls-1" d="M116.38435,77.12092a31.10072,31.10072,0,0,1-60.069,14.95586,30.93052,30.93052,0,0,1-.91108-3.051c-.00953-.03914-.01928-.0782-.02865-.11741q-.06171-.25773-.1188-.51721-.01943-.08784-.03829-.1759-.053-.24614-.10236-.4936c-.01319-.06668-.02563-.13362-.0384-.20044-.031-.162-.06171-.32417-.0902-.48708-.01079-.0618-.02039-.124-.03081-.18593q-.07533-.44678-.13755-.89791c-.01239-.08955-.026-.17873-.03758-.26853-.01566-.12075-.02908-.24221-.04336-.3634-.01454-.12362-.02936-.24717-.04244-.37124-.01206-.11413-.02266-.22868-.03348-.34318-.0126-.13369-.02476-.26751-.03566-.40169q-.01326-.16284-.02473-.32618-.0153-.21614-.02745-.43313c-.00576-.101-.01162-.202-.01642-.30329-.00769-.163-.01345-.32649-.01862-.49013-.00266-.08393-.00618-.16764-.00817-.25174-.00587-.24858-.00946-.49772-.00946-.74771,0-.24631.00387-.49172.00959-.73665.00149-.06387.0034-.12765.00527-.19142q.00933-.31641.02469-.63129c.00176-.03545.003-.071.00489-.10645q.02005-.37809.04912-.75375l.0074-.08954q.028-.3497.06364-.69721l.00776-.07679q.08252-.7836.20319-1.55541l.00232-.01478q.12337-.7857.28535-1.55816l-.00087.00266A31.15025,31.15025,0,0,1,72.37986,53.50684h-42.591a19.285,19.285,0,0,0-19.285,19.285v0a19.285,19.285,0,0,0,19.285,19.285H54.18029a32.0013,32.0013,0,1,0,62.20406-14.956Z"/><circle class="cls-1" cx="88.3795" cy="50.38567" r="6.00577"/><rect class="cls-1" x="82.61649" y="60.04712" width="11.52602" height="41.25707" rx="5.39033"/></svg>