<svg id="Info_Email" data-name="Info Email" xmlns="http://www.w3.org/2000/svg" viewBox="0 0 128 128"><defs><style>.cls-1{fill:#f89938;}</style></defs><path class="cls-1" d="M56.96616,68.51858a31.02009,31.02009,0,0,1,.30823-4.35488l-1.4549,1.4549A3.7171,3.7171,0,0,1,52.64006,66.666a3.71711,3.71711,0,0,1-3.17943-1.04744L16.72833,32.8863a3.72662,3.72662,0,1,1,5.27024-5.27024L52.64006,58.25754,83.28154,27.61606a3.72664,3.72664,0,0,1,5.27024,0h0a3.72663,3.72663,0,0,1,0,5.27024L83.379,38.05906a30.96469,30.96469,0,0,1,11.20259.45769V33.48839A9.08362,9.08362,0,0,0,85.498,24.40478H19.58361A9.08361,9.08361,0,0,0,10.5,33.48839V71.45321a9.08362,9.08362,0,0,0,9.08361,9.08362H59.40243A30.66914,30.66914,0,0,1,56.96616,68.51858ZM35.11563,59.09791,19.552,74.66154a2.09621,2.09621,0,0,1-2.96449,0h0a2.09624,2.09624,0,0,1,0-2.96451L32.15113,56.13341a2.09623,2.09623,0,0,1,2.9645,0h0A2.0962,2.0962,0,0,1,35.11563,59.09791Z"/><path class="cls-1" d="M117.45386,71.66432a29.98083,29.98083,0,0,1-58.00463,8.87255c-1.22878-3.2754-1.617,0-1.617,0A30.26964,30.26964,0,0,0,117.5,73.3283Q117.5,72.49067,117.45386,71.66432Z"/><path class="cls-1" d="M96.74079,58.01786,95.2297,70.43052a19.78483,19.78483,0,0,0-.13743,2.14691q0,1.21125,1.07157,1.211,1.923,0,3.79148-2.50322a10.24368,10.24368,0,0,0,1.86843-6.29993,11.90006,11.90006,0,0,0-4.0114-9.20191,14.09322,14.09322,0,0,0-9.836-3.64519,14.27911,14.27911,0,0,0-10.63284,4.451,15.19436,15.19436,0,0,0-4.341,11.04488A15.44367,15.44367,0,0,0,77.055,78.26691q4.05232,4.53336,11.41585,4.53333a27.59438,27.59438,0,0,0,4.62959-.4533,27.67733,27.67733,0,0,0,7.12975-2.73377l1.81333,4.53333a29.04645,29.04645,0,0,1-13.57267,3.43437A22.59868,22.59868,0,0,1,77.71443,85.122a18.782,18.782,0,0,1-7.432-7.18477A19.88524,19.88524,0,0,1,67.48,67.6066a18.99725,18.99725,0,0,1,5.962-14.2595,20.06836,20.06836,0,0,1,14.45187-5.74224A19.0107,19.0107,0,0,1,101.41162,52.674a16.10641,16.10641,0,0,1,5.41245,12.18517,14.55364,14.55364,0,0,1-3.31072,9.61621,9.95047,9.95047,0,0,1-7.87152,3.98385,5.28314,5.28314,0,0,1-4.69822-2.39028,6.39569,6.39569,0,0,1-5.08281,2.50016,7.15029,7.15029,0,0,1-5.65991-2.82988A11.23251,11.23251,0,0,1,77.838,68.29351,11.2134,11.2134,0,0,1,80.48944,60.573a8.23909,8.23909,0,0,1,6.38783-2.99478,6.62783,6.62783,0,0,1,4.341,1.621l.3298-1.18145ZM86.24538,73.26643A4.06224,4.06224,0,0,0,89.405,71.49427a7.19516,7.19516,0,0,0,1.42876-4.657,4.05909,4.05909,0,0,0-1.05787-2.74747,3.30022,3.30022,0,0,0-5.34381.32972,7.94871,7.94871,0,0,0-.316,7.47316A2.376,2.376,0,0,0,86.24538,73.26643Z"/></svg>