<svg id="Layer_54" data-name="Layer 54" xmlns="http://www.w3.org/2000/svg" viewBox="0 0 128 128"><defs><style>.cls-1{fill:#f36c23;}</style></defs><path class="cls-1" d="M81.12,64A17.12,17.12,0,1,1,64,46.88,17.12,17.12,0,0,1,81.12,64ZM117.5,40.46V87.54A29.994,29.994,0,0,1,87.54,117.5H40.46A29.994,29.994,0,0,1,10.5,87.54V40.46A29.994,29.994,0,0,1,40.46,10.5H87.54A29.994,29.994,0,0,1,117.5,40.46ZM89.68,64A25.68,25.68,0,1,0,64,89.68,25.68,25.68,0,0,0,89.68,64Zm8.56-27.82a6.42,6.42,0,1,0-6.42,6.42A6.42,6.42,0,0,0,98.24,36.18Z"/></svg>