<svg id="Jadwal_Shalat" data-name="Jadwal Shalat" xmlns="http://www.w3.org/2000/svg" viewBox="0 0 128 128"><defs><style>.cls-1{fill:#f89938;}</style></defs><path class="cls-1" d="M68.543,51.02675c.6804-.48172,1.09467-1.00223.723-1.867A21.29142,21.29142,0,0,0,66.22435,43.932c-2.29054-2.787-5.33848-4.48275-8.43994-6.10428a15.8228,15.8228,0,0,1-5.469-4.70695.97429.97429,0,0,1,.12577-1.50167c1.03855-.985.97178-2.18525-.05714-3.33986a2.11259,2.11259,0,0,0-.85162-.94045,8.046,8.046,0,0,1,.16845-3.21826c.63581-.22617,1.35791.12975,1.96479-.29132a6.379,6.379,0,0,0,3.23378-1.43494c.3399-.295.81975-.6437.49532-1.12011-.29821-.43791-.77181-.08084-1.10221.1148a2.88975,2.88975,0,0,1-2.38266.37463,8.23358,8.23358,0,0,1-4.217-2.89174,7.48744,7.48744,0,0,1-1.23772-5.63212c.03-.27908.24653-.73946-.17377-.8668-.4133-.12521-.62745.3008-.80884.59834a8.79688,8.79688,0,0,0-.96029,5.63311,6.07076,6.07076,0,0,0,2.52513,4.24443,4.06712,4.06712,0,0,1,.52233,5.15694c-1.17944,1.34569-1.22594,2.36634-.08437,3.6667.4295.48926.55222.96039.10429,1.4149-.66689.67671-1.12816,1.51153-1.86257,2.14527-2.27437,1.96264-4.974,3.24153-7.49048,4.8163a17.017,17.017,0,0,0-6.688,7.08589c-.12963.03851-.1816.11673-.12742.24922a14.652,14.652,0,0,0-1.29062,3.49732.38779.38779,0,0,0-.1032.49975,1.57232,1.57232,0,0,0-.15021.9892c-.79373,2.59766-.16512,5.14557.29584,7.6932a1.4345,1.4345,0,0,0,.608,1.03413l.20565.42471.09756.756-.00335.51128a3.1273,3.1273,0,0,0-.00136,1.47635l-.00062,1.503c-.02878.81652-.1214,1.637-.07087,2.44859.06979,1.12094-.36254,1.53162-1.49525,1.5109a17.07947,17.07947,0,0,0-4.39251.09288l-.80822.04257a1.415,1.415,0,0,1-.67778-1.44288A16.18484,16.18484,0,0,0,25.61225,65.26a25.02057,25.02057,0,0,0,.00247-3.96c-.299-1.31527.68433-1.97214,1.41613-2.75817q.77067-.7375,1.54138-1.475c.72328-.71064.72292-.811-.00452-1.25461-.69-.2716-1.33309.19645-2.01022.1272-.44631-.33608-.95966-.12881-1.44123-.17367-.58787-.05476-.911-.30785-.86005-.95124.23558-2.97228.05538-5.95.09748-8.92508a4.77646,4.77646,0,0,0-.13852-2.42814l.00363-.82911c.35457-1.26114,1.4147-2.08628,1.98584-3.21357a.602.602,0,0,0,.40371-.42966c.48943-.79207.42083-.9312-.52989-1.07456l-.47271.0018a1.4245,1.4245,0,0,1-1.76292-1.48606,1.16215,1.16215,0,0,0-.40728-.86381q-.23118-.92482-.46247-1.84942a.3981.3981,0,0,0-.11948-.46249,2.77035,2.77035,0,0,0-.41734-1.28358c.01346-.02786.04568-.067.037-.08154a.97724.97724,0,0,0-.11174-.13337c-.51-2.87755-1.75312-5.5752-2.08555-8.49843-.03524-.30983-.14195-.74929-.5315-.73541-.404.01441-.41444.47121-.46106.78022A41.54583,41.54583,0,0,1,18.002,28.459c-.68753,2.41424-1.4019,4.82083-2.10481,7.23069-.0216.02264-.06087.045-.06129.068a.96656.96656,0,0,0,.02514.17223l-.11006.55533c-.17464,1.4564-1.27868,1.40852-2.33287,1.4413l-.48078.00511c-.75639.06263-.62753.4372-.30953.87837a10.92724,10.92724,0,0,1,1.04666,1.20861c.57811.89442,1.60317,1.5064,1.5955,2.77673Q15.234,48.75248,15.29316,54.71c.00655.75489-.27734,1.07552-1.00773,1.05406a16.73031,16.73031,0,0,1-2.7219.04538c-.36486-.06957-.8-.07419-.99172.32021-.219.45052.105.79168.407,1.07379a15.12714,15.12714,0,0,0,1.68054,1.464,3.37605,3.37605,0,0,1,1.42982,3.18738c-.07778,6.74346-.04695,13.48815-.062,20.23239-.00155.69006-.08548,1.27946.96976,1.28929,8.7615.08171,17.53807-.2977,26.26993.7858a17.53922,17.53922,0,0,1,4.74868.792c.87542.36369,1.2782-.145,1.209-.97527-.203-2.43631.0115-4.87628-.10992-7.311A4.64893,4.64893,0,0,1,48.277,73.47759a3.07506,3.07506,0,0,1,4.37165-.59043c.785.61218,1.09143.27107,1.27591-.49171A39.08408,39.08408,0,0,1,68.543,51.02675ZM49.32784,20.89461a.44292.44292,0,0,0,.07239-.2744.5357.5357,0,0,0-.22981-.39073.53723.53723,0,0,1,.2305.38987A.44683.44683,0,0,1,49.32784,20.89461ZM24.08717,50.0032c.00147,2.02582-.03546,4.05093-.228,6.07322h0C24.05171,54.05414,24.08864,52.029,24.08717,50.0032Zm-4.60064,5.58706a1.46988,1.46988,0,0,1,.07943-.15986l.00021.00008A1.43659,1.43659,0,0,0,19.48653,55.59026Z"/><path class="cls-1" d="M117.33008,78.66178q-.01814-.18082-.03619-.36178c-.092-.46559-.192-.92966-.27482-1.39677-.2401-1.35334-.42044-2.71968-.71942-4.05969a33.29342,33.29342,0,0,0-4.4662-10.0905,28.61969,28.61969,0,0,0-8.4481-8.74383,29.09971,29.09971,0,0,0-26.93148-3.35245,31.42217,31.42217,0,0,0-14.67856,12.119,36.4469,36.4469,0,0,0-1.603,36.19875,28.83805,28.83805,0,0,0,9.86626,11.22291A35.52488,35.52488,0,0,0,80.83733,115.002a.28444.28444,0,0,0,.37514.08131,26.18035,26.18035,0,0,0,4.4727.34159,2.89965,2.89965,0,0,0,2.23729.00012,3.57308,3.57308,0,0,0,1.96811-.1604.39481.39481,0,0,0,.52658-.05089,5.44552,5.44552,0,0,0,1.97917-.15174.24229.24229,0,0,0,.33975-.0834,41.7688,41.7688,0,0,0,4.68315-1.48832c9.29027-3.71976,15.05655-10.70079,18.30225-19.92582a16.76063,16.76063,0,0,0,1.2591-5.44951.39.39,0,0,0,.11416-.51721,2.77643,2.77643,0,0,0,.19217-1.35534l.03867-.349A38.05822,38.05822,0,0,0,117.33008,78.66178ZM93.2047,55.12448A25.90819,25.90819,0,0,1,106.977,65.11376c5.21509,7.04231,6.51965,14.94673,4.87839,23.37344A25.72761,25.72761,0,0,1,106.98,99.23066a26.64758,26.64758,0,0,1-9.68135,8.38713c-3.32531,1.57073-6.80429,2.85766-10.67286,2.42972-8.42229-.18995-14.93979-3.98778-19.88152-10.71443a25.49692,25.49692,0,0,1-3.68387-6.72327,30.12194,30.12194,0,0,1-1.61342-14.25807,30.75937,30.75937,0,0,1,5.57587-13.8708,24.97746,24.97746,0,0,1,7.75535-6.84018A22.4023,22.4023,0,0,1,93.2047,55.12448Z"/><path class="cls-1" d="M75.55643,39.44792c1.20639,1.35986,2.56495,2.65958,2.09577,4.37334-.20928,2.49026-.19559,2.539,1.77544,1.98542a19.7565,19.7565,0,0,1,5.84314-.92413c1.10568.0276,1.52291-.44214,1.35066-1.50537a2.41811,2.41811,0,0,1,.47365-2.20933c.56053-.6027,1.08825-1.23585,1.64668-1.84057.29074-.3148.58775-.62052.35309-1.0819a.9026.9026,0,0,0-1.1668-.424c-1.172.30674-1.67574-.28946-1.8941-1.34928-.90751-4.40433-2.57128-8.608-3.46745-13.01625-.05633-.27708-.09707-.63556-.45572-.65869-.4641-.02991-.459.41344-.53341.705-.28549,1.11832-.50906,2.25286-.80913,3.367-.86847,3.22459-1.79036,6.435-2.63092,9.66675-.26671,1.02546-.7817,1.49872-1.84187,1.33994-.48324-.07237-1.04319-.24954-1.316.3331C74.70723,38.79034,75.23422,39.08474,75.55643,39.44792Z"/><path class="cls-1" d="M85.69575,84.463c1.735-.01259,3.47018-.00392,5.20529-.00392l.00062-.012c1.85875,0,3.71889-.0439,5.57573.01526,1.25889.04014,1.13042-.87131,1.18763-1.60338.0666-.85226-.42827-1.0892-1.26248-1.068-2.84972.07224-5.70148.06333-8.5524.09076-.81825.00788-1.17-.32147-1.15345-1.19947.10456-5.53631-.148-11.07545.11361-16.6108.04569-.9674-.41324-1.34675-1.329-1.35195-1.00181-.00568-1.12226.62462-1.09336,1.41007.04255,1.156.10737,2.31331.08885,3.4689-.0841,5.248.19539,10.49908-.12407,15.74427C84.28928,84.38422,84.91538,84.46867,85.69575,84.463Z"/></svg>