<svg id="Kiblat" xmlns="http://www.w3.org/2000/svg" viewBox="0 0 128 128"><defs><style>.cls-1{fill:#f58633;}</style></defs><path class="cls-1" d="M59.60752,10.5H67.963c.05611.23149.24475.199.411.20218a31.663,31.663,0,0,1,5.57368.71315,52.53974,52.53974,0,0,1,32.08369,19.5774c9.30419,11.87838,12.89313,25.43312,10.92964,40.36361A49.78081,49.78081,0,0,1,104.2864,99.03473c-14.94136,16.31794-33.36987,21.97517-54.77095,16.355C29.23566,110.064,14.09675,92.51412,11.08759,71.87435a14.44243,14.44243,0,0,0-.56848-3.51269V59.58841c.22975-.05438.1968-.24313.21081-.40933A52.40343,52.40343,0,0,1,12.374,49.97625,53.64444,53.64444,0,0,1,56.095,11.06843,14.42583,14.42583,0,0,0,59.60752,10.5Zm4.36812,5.87854a47.59651,47.59651,0,1,0,47.615,47.63023A47.73673,47.73673,0,0,0,63.97564,16.37854Z"/><path class="cls-1" d="M108.8965,64.00583A44.90239,44.90239,0,1,1,64.05081,19.0727,45.01126,45.01126,0,0,1,108.8965,64.00583ZM95.49939,91.86814c-.65907-.54948-1.264-1.07372-1.89175-1.56906-.32908-.25967-.4654-.4759-.09768-.82009a5.65828,5.65828,0,0,0,.66554-.80219c.26222-.35777.45768-.4419.88661-.123.66146.4918,1.21338,1.62532,1.98979,1.34143.68376-.25,1.1-1.28044,1.59251-1.99515,1.28778-1.869,1.27876-1.8755-.6355-3.002-.14984-.08817-.30017-.17656-.45581-.25367-.29406-.14572-.25954-.3453-.11815-.58153a11.42927,11.42927,0,0,0,.61774-1.08479c.2075-.453.44177-.347.80855-.18123.75873.34284,1.49013,1.388,2.19907.99143.62461-.34938.84465-1.4517,1.20434-2.23935.953-2.08682.94464-2.09082-1.14135-2.872-.0973-.03643-.19652-.06852-.29643-.09713-.398-.114-.60955-.29518-.36729-.74718a3.712,3.712,0,0,0,.31183-.87929c.13345-.55209.36671-.67756.94146-.462.726.27225,1.60825,1.00254,2.17455.61362.52-.35712.55846-1.42.79968-2.17489.05242-.16408.05531-.3433.09711-.51154.49225-1.98115.49291-1.98027-1.457-2.35467a2.52712,2.52712,0,0,0-.40232-.10587c-.59721-.00916-.73536-.219-.59264-.84109.34512-1.50433.30147-1.51367,1.79051-1.21813.27193.054.55086.08047.817.154.572.1581.81688-.01508.84345-.63668.05044-1.1796.13038-2.36092.27271-3.53245.08139-.66994-.1288-.83545-.77482-.82366-2.01853.03686-4.03816.01351-6.05737.01347-1.4478,0-1.40443-.001-1.43621-1.41751-.015-.66791.198-.81073.82236-.7938,1.60026.04342,3.20248.01448,4.80392.01448,2.90342,0,2.90343,0,2.53979-2.90721-.26979-2.15692-.26986-2.15731-2.46378-1.838a1.67015,1.67015,0,0,0-.4069.08508c-.29834.12578-.42584.00315-.5461-.26906-.61581-1.39386-.36174-1.88735,1.1125-2.10577.1031-.01528.20921-.01123.31186-.02848,1.30111-.21855,1.30241-.21944,1.00614-1.49494-.11743-.50559-.22337-1.01495-.36751-1.513-.627-2.16653-.63131-2.165-2.71653-1.41623-.1631.05857-.33466.09719-.49153.1687-.24019.1095-.33271.02892-.47267-.19581-.80867-1.29851-.67606-1.74634.72209-2.26376a5.23708,5.23708,0,0,1,.679-.25688c.69414-.15048.90546-.44656.53486-1.14226-.53685-1.00781-1.01056-2.05174-1.46294-3.10107-.24115-.55937-.462-.77171-1.03754-.33967a18.3553,18.3553,0,0,1-1.61549.94534c-.2331.14-.37063.19137-.59526-.07313-1.01276-1.19251-.96665-1.60018.33809-2.35557.45012-.2606.896-.52852,1.41341-.8342-.59425-.8804-1.14807-1.75461-1.75572-2.58965-1.15514-1.58738-1.16709-1.57707-2.70947-.28648-.26578.2224-.54211.43218-.81131.646-1.5506-1.572-1.5506-1.572.05446-2.94334.26211-.22394.52413-.448.83569-.71428-.66192-.69584-1.28607-1.39645-1.95722-2.0487-1.62253-1.57683-1.6435-1.57765-3.053.14575-.38295.46825-.62325.68782-1.19628.165-1.07321-.97912-1.11385-.93337-.15714-2.05511.2484-.29123.47966-.598.7407-.87722.238-.25452.25757-.41774-.05672-.65235a33.41871,33.41871,0,0,0-3.83442-2.61158c-.28447.48909-.52963.90817-.77249,1.32857-.77032,1.33337-.75058,1.29879-2.07089.56189-.53438-.29825-.55382-.52134-.27351-1.01821.3817-.67661,1.2667-1.41538.9731-2.0367-.27153-.57459-1.30542-.81294-2.0292-1.14315-.74888-.34166-1.626-.98317-2.2668-.81338-.611.16188-.62874,1.35186-.942,2.07536-.09224.21306-.12138.59045-.3947.52511a4.79726,4.79726,0,0,1-1.73476-.64877c-.35272-.26125.11069-.73256.21939-1.10506.12583-.43118.285-.8538.45061-1.27185.15274-.38559.15038-.61417-.35273-.73127-.9765-.22726-1.92743-.5631-2.9021-.79979-1.52772-.371-1.53235-.35194-1.76742,1.23571-.21932,1.4812-.21763,1.47023-1.65856,1.24937-.546-.08369-.93316-.17615-.67582-.89855a12.92239,12.92239,0,0,0,.27053-1.53431c.1304-.58781.03533-.89581-.67381-.91323a29.72694,29.72694,0,0,1-3.32335-.25812c-.7883-.10865-1.11355.1017-.98274.91206a3.97347,3.97347,0,0,1,.00491.62585c-.00005,1.56468.00066,1.53983-1.564,1.49453-.49879-.01444-.63861-.1517-.64905-.649-.01646-.7838.38612-1.89193-.18385-2.26735-.57325-.37758-1.605-.05983-2.43587-.04441a2.77677,2.77677,0,0,0-.31173.0285c-2.11384.27993-2.18523.29435-1.76748,2.38813.17962.90028-.134.95751-.85347,1.16427-1.11125.31932-1.3732-.15924-1.4551-1.07975-.03676-.4132-.19181-.82008-.19633-1.2309-.006-.54032-.28711-.54034-.66665-.44124-.971.25353-1.94633.49237-2.90973.77223-1.45485.42263-1.45116.43533-.93515,1.84118.57625,1.57.56265,1.53071-.98311,2.06651-.53917.18688-.64538-.005-.8131-.41649-.30431-.7466-.30828-1.94156-1.01874-2.10543-.65481-.151-1.52233.51356-2.26514.88148-.7057.34954-1.7938.51415-1.97683,1.15806-.14811.52108.58794,1.31933.98279,1.96338.7549,1.23133-.61535.97892-.98427,1.40591-.33318.38562-.669.31-.92508-.20327-.35422-.70994-.78792-1.38022-1.19625-2.08241a40.53855,40.53855,0,0,0-3.73394,2.54818c-.36622.27037-.41685.46118-.09715.80345.45058.48239.86516.99985,1.27363,1.51922.12144.15442.382.256.148.58557-.7989,1.12544-1.54625,1.20318-2.397.19028-.26858-.31979-.54866-.63058-.8042-.96043-.17157-.22146-.32029-.32557-.56454-.09041a32.58063,32.58063,0,0,0-3.299,3.40155c.67291.55932,1.29406,1.06376,1.89928,1.58663.161.13907.40623.22633.24784.57841-.58293,1.29578-1.3106,1.47612-2.395.54747-.26428-.22633-.55036-.431-.79169-.6794-.33186-.34155-.53386-.26209-.80094.09935a40.15534,40.15534,0,0,0-2.5463,3.7315c.73276.42694,1.45389.83956,2.166,1.26726.18026.10827.434.13319.34379.50891-.31346,1.30546-1.03991,1.663-2.17168,1.01244-.33069-.19009-.67086-.367-.98507-.58158-.36718-.25078-.57744-.2213-.77319.22194-.53176,1.20408-1.09363,2.39557-1.674,3.57712-.20866.42483-.116.623.32063.76082.59371.18744,1.16942.43148,1.76179.62366.43412.14085.68.311.39458.812a4.2895,4.2895,0,0,0-.30429.88216c-.14211.4669-.33534.69014-.87987.41374-.55126-.2798-1.1697-.42423-1.74822-.65434-.41094-.16345-.60413-.09888-.71665.377-.22272.94205-.55179,1.85867-.78324,2.799-.396,1.609-.3787,1.6133,1.24091,1.85336,1.47014.2179,1.45473.21554,1.23111,1.67625-.08789.57414-.22553.88891-.91752.65475-.51811-.17532-1.09848-.15685-1.63787-.28188-.54615-.1266-.7522.04621-.7812.60153-.06157,1.17939-.12158,2.36277-.27687,3.532-.09854.742.165.87844.83461.868,2.22755-.03466,4.45717.03012,6.68355-.03157,1.08435-.03005.68289.69706.71873,1.18412.0378.51372.21881,1.08757-.74725,1.0553-2.26038-.0755-4.52506-.015-6.78785-.03106-.49866-.00353-.79949.06484-.70631.68068.14034.92744.03578,1.87152.20785,2.80664.29231,1.58854.25861,1.59475,1.9027,1.30884,1.31319-.22836,1.29215-.224,1.57291,1.12491.10686.5134.273.85812-.511.99358-.77062.13315-1.939-.08527-2.21332.62589-.25019.64851.22577,1.60035.44337,2.40175.62291,2.29409.64476,2.31738,2.92939,1.49969,1.363-.48782.82278.80674,1.19723,1.22867.37692.42472.14734.69193-.37256.87929-.73925.2664-1.92094.31415-2.07756.93317-.16358.64653.51268,1.50637.82491,2.27169.05234.12826.11971.25046.18148.3748.93136,1.87472.94263,1.89344,2.73687.82068.61188-.36584.94525-.47466,1.41542.28588.57829.93542.47521,1.42778-.52759,1.80212-.28863.10775-.53311.329-.81682.45569-.57383.25623-.75439.54864-.30488,1.11912.57919.73507,1.07,1.539,1.62364,2.29513.89218,1.21859.90071,1.21234,2.06744.21462,1.21156-1.03606,1.18836-1.01669,2.19374.18714.35057.41977.37692.6492-.08.97534-.50822.36274-.9516.81526-1.45086,1.19206-.31853.24039-.35554.39664-.06178.70869a36.70182,36.70182,0,0,0,3.2911,3.20752c.24228-.28427.4672-.54872.69271-.81267,1.36454-1.59713,1.36458-1.5971,2.94715-.03908-.53277.63825-1.05635,1.28854-1.607,1.915-.25728.29269-.2897.46749.06437.73058a37.065,37.065,0,0,0,3.787,2.5811c.28246-.478.55051-.92377.81109-1.37391.75193-1.29894.73418-1.271,2.083-.48958.47875.27737.54253.477.25954.94243-.40886.67235-1.27839,1.48374-1.01964,2.03541.28251.60235,1.35711.83374,2.08774,1.2244.06055.03238.13317.04136.19637.06972,2.1112.947,2.16862.96677,2.91351-1.21965.49526-1.4537,1.19881-.19089,1.78357-.21353.382-.01479.60421.2167.42084.77356-.25781.78293-1.12048,1.69853-.59249,2.33583.458.55281,1.57847.55734,2.40679.802.09955.02939.20383.04234.30475.06757,1.89159.47275,1.89085.47277,2.26533-1.48028a2.55564,2.55564,0,0,0,.1064-.40215c.0102-.59459.21638-.73729.84051-.59421,1.50726.34555,1.517.30167,1.22554,1.78167-.05357.27208-.08732.54913-.15794.81657-.146.553-.01509.828.62528.85366,1.17962.04729,2.36069.13089,3.53254.27128.65657.07867.84613-.10331.83322-.76491-.03937-2.01843-.01427-4.03813-.01423-6.05733,0-1.482-.0002-1.45453,1.51364-1.44072.53819.00491.71835.13523.70623.6954-.03612,1.67028-.01285,3.34185-.01284,5.01292,0,2.75214,0,2.75213,2.78755,2.46433,2.28282-.23567,2.28324-.23573,1.94468-2.47018a1.69966,1.69966,0,0,0-.08911-.40616c-.12431-.29413-.01408-.42556.26278-.549,1.39106-.62029,1.9003-.36388,2.11817,1.09674.01025.06868.007.13942.0175.208.21776,1.41839.218,1.41854,1.59653,1.10881.43957-.09875.88416-.17985,1.31743-.30122,2.27294-.63666,2.2718-.64021,1.49685-2.85562a.94675.94675,0,0,0-.056-.20021c-.254-.39179-.14169-.6234.2945-.75128a4.96648,4.96648,0,0,0,.977-.34812c.45527-.24687.64169-.12165.848.33836.33767.75292.24752,2.00819,1.0722,2.14651.71536.12,1.57054-.59382,2.364-.939.03183-.01385.06529-.02424.09631-.03962,1.9371-.96007,1.937-.96006.87751-2.79951a3.40884,3.40884,0,0,0-.20774-.36057c-.26226-.34787-.251-.60162.19112-.79529a4.81053,4.81053,0,0,0,.90128-.517c.39769-.29046.61708-.23185.87313.21054.40637.70214.67138,1.9181,1.30464,1.94871.706.03413,1.45532-.82041,2.18483-1.28963.08759-.05633.16957-.12145.2535-.18337,1.66835-1.23091,1.66762-1.23034.3183-2.85812-.19951-.24069-.38858-.49-.5811-.7336,1.54956-1.57216,1.5496-1.57219,2.922.03374.22592.26435.45135.52912.7087.83088A35.34374,35.34374,0,0,0,95.49939,91.86814Z"/><path class="cls-1" d="M45.28648,54.944c0-1.04375.02407-2.08829-.01037-3.13091a.79242.79242,0,0,1,.63666-.89532q8.78741-3.16317,17.557-6.37573a1.45684,1.45684,0,0,1,1.08548.01372q8.72616,3.1806,17.4625,6.3331a.8701.8701,0,0,1,.69761.96347c-.03391,2.05215-.02973,4.10541-.00246,6.15776a.8398.8398,0,0,1-.682.962q-8.76521,2.90958-17.51,5.88048a1.54891,1.54891,0,0,1-1.08977-.01569q-8.6976-2.94786-17.41093-5.849c-.56219-.18642-.77392-.42685-.74663-1.01759C45.32014,56.96344,45.28644,55.95292,45.28648,54.944Zm5.40631-3.86171a1.84539,1.84539,0,0,0,.24784.14677c2.88541.975,5.84914,1.768,8.63657,2.96983a10.39855,10.39855,0,0,0,8.80244.00857c2.84307-1.23149,5.87-2.03847,9.00062-3.09446-3.84289-1.40072-7.51238-2.65353-11.10926-4.08835a5.615,5.615,0,0,0-4.523-.01105C58.12483,48.46971,54.42079,49.72479,50.69279,51.08225Z"/><path class="cls-1" d="M53.88755,66.93893a19.58077,19.58077,0,0,0,.89722,4.34356,6.706,6.706,0,0,0,1.6139,2.517,2.42963,2.42963,0,0,0,3.68846-.09552,7.06558,7.06558,0,0,0,1.751-4.037c.10844-.67587.28856-.83661.90324-.52155a2.55731,2.55731,0,0,0,2.4796.00822c.70139-.37616.85449-.08585.94683.58463A7.82353,7.82353,0,0,0,67.248,72.85849c1.40514,2.24843,3.4682,2.32949,5.01284.18927a11.0672,11.0672,0,0,0,1.73957-5.48317c.015-.13569.03229-.27113.07-.58617.40938.97462.55441,1.863.96437,2.65789,1.399,2.71265,3.79913,2.86946,5.45533.3108a9.95655,9.95655,0,0,0,1.49213-5.131c.01232-.31288.01041-.62639.01157-.93962.00106-.283.128-.47943.41531-.49951.40506-.02832.30186.30027.30216.513.00595,4.2811-.00482,8.56224.01676,12.84323.00255.50677-.26457.65726-.64428.78445q-8.81,2.95112-17.61409,5.91952a1.55869,1.55869,0,0,1-1.09-.04906c-5.771-1.94583-11.53906-3.90068-17.318-5.82285a.96141.96141,0,0,1-.79215-1.09357c.02924-4.03725.00693-8.07486.03-12.11218.00186-.3244-.2795-.9139.24309-.9588.62912-.05407.44792.573.45324.95129a10.04167,10.04167,0,0,0,1.71574,5.8974c1.50212,2.097,3.56024,2.02777,4.9593-.1245A13.03738,13.03738,0,0,0,53.88755,66.93893Z"/><path class="cls-1" d="M73.69957,45.213c-2.312-1.367-4.73717-2.57782-6.9028-4.14685-1.98122-1.43543-3.57254-1.52631-5.5716-.03481a65.78527,65.78527,0,0,1-6.24308,3.73924,1.57493,1.57493,0,0,1-.98351.39861c3.32347-6.01148,6.61408-11.96351,9.99659-18.08181l9.903,17.961Z"/><path class="cls-1" d="M54.50829,66.37867c2.14867.71589,4.10934,1.38243,6.08027,2.01712.53865.17346.48514.38608.24209.804-1.256,2.15951-3.16012,2.37061-4.789.4971A7.16675,7.16675,0,0,1,54.50829,66.37867Z"/><path class="cls-1" d="M73.48676,66.37791a7.32167,7.32167,0,0,1-1.81317,3.63018c-1.91286,1.98958-3.77472.6091-4.66726-1.08-.246-.46562.206-.44671.399-.513C69.36456,67.74237,71.33258,67.0951,73.48676,66.37791Z"/><path class="cls-1" d="M46.4711,63.67049c2.15112.7215,4.17052,1.40047,6.19135,2.07517.38671.12911.30124.30784.14809.60533-1.09434,2.12574-3.116,2.409-4.71072.65279A7.7371,7.7371,0,0,1,46.4711,63.67049Z"/><path class="cls-1" d="M74.9065,65.89363l6.57905-2.21843a6.86433,6.86433,0,0,1-2.06713,3.8132c-1.19867,1.0767-2.68688.87978-3.80452-.49054A11.677,11.677,0,0,1,74.9065,65.89363Z"/></svg>