<svg id="Kursus" xmlns="http://www.w3.org/2000/svg" viewBox="0 0 128 128"><defs><style>.cls-1{fill:#f89938;}</style></defs><path class="cls-1" d="M78.61435,21.96745A74.00321,74.00321,0,0,1,89.43414,13.583H10.5v86.93345H42.98667q.43317,3.12422,1.046,6.178H34.32571V114.417h22.889A90.43228,90.43228,0,0,1,52.86907,86.5594q0-2.08048.09191-4.13569H21.83085V21.96745Z"/><ellipse class="cls-1" cx="59.00767" cy="32.61998" rx="7.0105" ry="7.91781"/><path class="cls-1" d="M64.9774,41.87132H63.71793L59.25183,50.608l-4.46611-8.73666H53.03794c-5.26476,0-9.53269,4.82029-9.53269,10.76643v.42115c0,5.94613,4.26793,10.76642,9.53269,10.76642H64.9774c5.26476,0,9.53269-4.82029,9.53269-10.76642v-.42115C74.51009,46.69161,70.24216,41.87132,64.9774,41.87132Z"/><ellipse class="cls-1" cx="91.48476" cy="40.76947" rx="10.81092" ry="12.21009"/><path class="cls-1" d="M78.98725,65.15886h25.54367a12.13759,12.13759,0,0,1,8.70023,3.78524c-.99512-6.70548-6.15731-11.81556-12.37712-11.81556H82.11548c-6.43362,0-11.73573,5.46742-12.46483,12.5126A12.26928,12.26928,0,0,1,78.98725,65.15886Z"/><path class="cls-1" d="M104.53092,65.15886H78.98725c-7.16262,0-12.96908,6.55793-12.96908,14.64756v28.81916H117.5V79.80642C117.5,71.71679,111.69355,65.15886,104.53092,65.15886Zm5.978,37.564H73.00928V79.63461c0-4.73478,3.39846-8.57307,7.59068-8.57307h22.31825c4.19221,0,7.59067,3.83829,7.59067,8.57307Z"/></svg>