<svg id="Nama_pengguna" data-name="Nama pengguna" xmlns="http://www.w3.org/2000/svg" viewBox="0 0 128 128"><defs><style>.cls-1{fill:#f89938;}</style></defs><circle class="cls-1" cx="53.503" cy="31.16912" r="20.66912"/><path class="cls-1" d="M54.52185,81.65007a31.09792,31.09792,0,0,1,17.858-28.14323h-42.591a19.285,19.285,0,0,0-19.285,19.285v0a19.285,19.285,0,0,0,19.285,19.285H56.31542A31.03935,31.03935,0,0,1,54.52185,81.65007Z"/><path class="cls-1" d="M116.38435,77.12092a31.09534,31.09534,0,1,1-61.19928-1.8823,31.99757,31.99757,0,1,0,61.19928,1.8823Z"/><path class="cls-1" d="M100.17886,55.89091h0a3.60933,3.60933,0,0,0-3.60933,3.60933v8.06481A2.69494,2.69494,0,0,1,93.87459,70.26H82.03649a2.69493,2.69493,0,0,1-2.69493-2.69494V59.50023a3.60933,3.60933,0,0,0-3.60933-3.60932h0a3.60932,3.60932,0,0,0-3.60932,3.60932V90.82205a3.60932,3.60932,0,0,0,3.60932,3.60932h0A3.60933,3.60933,0,0,0,79.34156,90.822V80.17359a2.69493,2.69493,0,0,1,2.69493-2.69494h11.8381a2.69494,2.69494,0,0,1,2.69494,2.69494V90.82205a3.60932,3.60932,0,0,0,3.60932,3.60932h0a3.60933,3.60933,0,0,0,3.60933-3.60933V59.50023A3.60933,3.60933,0,0,0,100.17886,55.89091Z"/></svg>