<svg id="Tidak_Ada_Pesanan" data-name="Tidak Ada Pesanan" xmlns="http://www.w3.org/2000/svg" viewBox="0 0 128 128"><defs><style>.cls-1{fill:#f05230;}</style></defs><path class="cls-1" d="M37.44924,32.14891v6.74687H81.39118V32.14891a2.32031,2.32031,0,0,0-2.32537-2.32537H68.3669V18.05474A7.55727,7.55727,0,0,0,60.81216,10.5h-2.1507a7.548,7.548,0,0,0-7.54382,7.55474v11.7688h-11.343A2.34144,2.34144,0,0,0,37.44924,32.14891ZM59.92786,19.77967a3.13325,3.13325,0,1,1-3.13325,3.13325A3.13333,3.13333,0,0,1,59.92786,19.77967Z"/><path class="cls-1" d="M34.8946,106.25523c-2.63106,0-4.75992-1.8341-4.75992-4.10489V29.8017c0-2.25987,2.12886-4.10488,4.75992-4.10488H48.36649v-5.404H30.757c-3.06775,0-5.546,2.08519-5.546,4.65075v82.065c0,2.56556,2.47821,4.65075,5.546,4.65075H55.36445a47.75862,47.75862,0,0,0-7.34731-5.404Z"/><path class="cls-1" d="M93.70584,24.94353c0-2.56556-2.47822-4.65075-5.546-4.65075H71.50015v5.404H84.02224c2.63106,0,4.75992,1.8341,4.75992,4.10489V62.881c1.55025-1.44107,3.19876-2.86032,4.92368-4.21406V24.94353Z"/><path class="cls-1" d="M88.78216,100.37083v1.77951c0,2.25988-2.12886,4.10489-4.75992,4.10489h-.58953q-2.06335,2.45638-4.29048,5.404h9.01765c3.06774,0,5.546-2.08519,5.546-4.65075V95.87292C92.14468,97.16116,90.50709,98.635,88.78216,100.37083Z"/><path class="cls-1" d="M58.90164,86.40766l8.72289,15.6881s15.33874-34.171,33.647-41.14713c-.6987,9.236-.97163,18.30823,1.5175,20.579C97.42864,83.79844,80.69248,97.49959,68.83635,117.5c-11.15744-10.86267-11.15744-13.29721-25.98307-20.79737C52.10019,90.76365,58.90164,86.40766,58.90164,86.40766Z"/><path class="cls-1" d="M38.73747,53.80875H53.67228v2.09611H38.73747Z"/><path class="cls-1" d="M38.73747,49.03791H53.67228V51.134H38.73747Z"/><path class="cls-1" d="M38.73747,59.8569H80.7034V61.953H38.73747Z"/><path class="cls-1" d="M38.73747,66.01423H80.7034v2.09612H38.73747Z"/><path class="cls-1" d="M38.73747,72.17157H80.7034v2.09611H38.73747Z"/></svg>