<svg id="Pesanan" xmlns="http://www.w3.org/2000/svg" viewBox="0 0 128 128"><defs><style>.cls-1{fill:#f89938;}</style></defs><path class="cls-1" d="M104.395,10.5H23.605A13.105,13.105,0,0,0,10.5,23.605V104.395A13.105,13.105,0,0,0,23.605,117.5h80.79A13.105,13.105,0,0,0,117.5,104.395V23.605A13.105,13.105,0,0,0,104.395,10.5ZM69.1018,100.41355H28.14948a4.68814,4.68814,0,0,1,0-9.37628H69.1018a4.68814,4.68814,0,1,1,0,9.37628Zm4.68815-26.75A4.68815,4.68815,0,0,1,69.1018,78.3517H28.14948a4.68813,4.68813,0,0,1-4.68813-4.68814v0a4.68813,4.68813,0,0,1,4.68813-4.68813H69.1018A4.68814,4.68814,0,0,1,73.79,73.66354ZM91.43944,51.6017a4.68815,4.68815,0,0,1-4.68815,4.68815H28.14948a4.68814,4.68814,0,0,1-4.68813-4.68815h0a4.68812,4.68812,0,0,1,4.68813-4.68813H86.75129a4.68814,4.68814,0,0,1,4.68815,4.68813Zm13.09921-22.06185A4.68812,4.68812,0,0,1,99.85052,34.228h-71.701a4.68812,4.68812,0,0,1-4.68813-4.68813h0a4.68813,4.68813,0,0,1,4.68813-4.68814h71.701a4.68813,4.68813,0,0,1,4.68813,4.68814Z"/></svg>