<svg id="POINT" xmlns="http://www.w3.org/2000/svg" viewBox="0 0 128 128"><defs><style>.cls-1{fill:#7f1517;}.cls-2{fill:#cb6828;}.cls-3{fill:#f89938;}</style></defs><path class="cls-1" d="M64,10.5A53.5,53.5,0,1,0,117.5,64,53.5,53.5,0,0,0,64,10.5ZM79.3139,81.86633a3.092,3.092,0,0,1-.88867,2.22217,3.00051,3.00051,0,0,1-2.25683.92285H74.32269a3.15082,3.15082,0,0,1-3.1455-3.145V66.82385q0-.8203-.88868-.82031H57.9809q-.88917,0-.88868.82031V81.86633a3.15083,3.15083,0,0,1-3.14453,3.145h-1.915a3.15083,3.15083,0,0,1-3.14453-3.145V41.93616a2.99947,2.99947,0,0,1,.92285-2.25635,3.0901,3.0901,0,0,1,2.22168-.88867h1.915a3.09169,3.09169,0,0,1,2.22168.88867,2.99943,2.99943,0,0,1,.92285,2.25635V56.90979q0,.95874.88868.95752H70.28851q.8877,0,.88868-.95752V41.93616A2.99943,2.99943,0,0,1,72.1,39.67981a3.094,3.094,0,0,1,2.22265-.88867H76.1684a3.0405,3.0405,0,0,1,3.1455,3.145Z"/><path class="cls-2" d="M64,16.06525A47.93475,47.93475,0,1,0,111.93475,64,47.93475,47.93475,0,0,0,64,16.06525ZM79.3139,81.86633a3.092,3.092,0,0,1-.88867,2.22217,3.00051,3.00051,0,0,1-2.25683.92285H74.32269a3.15082,3.15082,0,0,1-3.1455-3.145V66.82385q0-.8203-.88868-.82031H57.9809q-.88917,0-.88868.82031V81.86633a3.15083,3.15083,0,0,1-3.14453,3.145h-1.915a3.15083,3.15083,0,0,1-3.14453-3.145V41.93616a2.99947,2.99947,0,0,1,.92285-2.25635,3.0901,3.0901,0,0,1,2.22168-.88867h1.915a3.09169,3.09169,0,0,1,2.22168.88867,2.99943,2.99943,0,0,1,.92285,2.25635V56.90979q0,.95874.88868.95752H70.28851q.8877,0,.88868-.95752V41.93616A2.99943,2.99943,0,0,1,72.1,39.67981a3.094,3.094,0,0,1,2.22265-.88867H76.1684a3.0405,3.0405,0,0,1,3.1455,3.145Z"/><path class="cls-3" d="M48.88812,41.93616a2.99947,2.99947,0,0,1,.92285-2.25635,3.0901,3.0901,0,0,1,2.22168-.88867h1.915a3.09169,3.09169,0,0,1,2.22168.88867,2.99943,2.99943,0,0,1,.92285,2.25635V56.90979q0,.95874.88868.95752H70.28851q.8877,0,.88868-.95752V41.93616A2.99943,2.99943,0,0,1,72.1,39.67981a3.094,3.094,0,0,1,2.22265-.88867H76.1684a3.0405,3.0405,0,0,1,3.1455,3.145v8.22125L98.6131,30.85822A47.92162,47.92162,0,1,0,30.85822,98.613l18.0299-18.02991Z"/><path class="cls-3" d="M57.09222,66.82385V72.379l6.37549-6.37549H57.9809Q57.09173,66.00354,57.09222,66.82385Z"/></svg>