<svg id="Pusat_Bantuan" data-name="Pusat Bantuan" xmlns="http://www.w3.org/2000/svg" viewBox="0 0 128 128"><defs><style>.cls-1,.cls-2{fill:#f89938;}.cls-1{fill-rule:evenodd;}</style></defs><path class="cls-1" d="M68.88136,15.6826c-.9437.00586-1.87887.0457-2.80886.10484a48.30909,48.30909,0,0,1,.099,96.42537c1.09526.06732,2.1966.11173,3.31014.10484a48.31846,48.31846,0,1,0-.60032-96.63505Z"/><path class="cls-1" d="M16.61464,64.3a48.316,48.316,0,0,1,45.211-48.513c-1.09431-.06718-2.19469-.11159-3.30728-.1047a48.31846,48.31846,0,1,0,.60032,96.63505c.94281-.00586,1.87724-.04563,2.80641-.1047A48.31221,48.31221,0,0,1,16.61464,64.3Z"/><path class="cls-2" d="M79.85536,53.592a9.09279,9.09279,0,0,1-1.66544,5.30846,8.85235,8.85235,0,0,1-4.371,3.36471l-5.20478,2.0125a.56183.56183,0,0,0-.346.20845l-.1397.41582v4.1636a2.95952,2.95952,0,0,1-.9364,2.21986,3.13345,3.13345,0,0,1-2.25478.90148h-1.8739a3.13343,3.13343,0,0,1-2.25478-.90148,2.95952,2.95952,0,0,1-.9364-2.21986V64.76337a8.333,8.333,0,0,1,1.63051-4.92647,8.5979,8.5979,0,0,1,4.05883-3.19119l5.34229-2.01249A.96061.96061,0,0,0,71.598,53.592V47.27843a.98387.98387,0,0,0-.27721-.65919.82288.82288,0,0,0-.62427-.31214H57.3741a1.08384,1.08384,0,0,0-.97133.97133v5.06508a2.84977,2.84977,0,0,1-.9364,2.18493,3.11078,3.11078,0,0,1-2.186.86765H51.33769a3.19407,3.19407,0,0,1-2.25478-.86765,2.84977,2.84977,0,0,1-.9364-2.18493V47.27843A8.731,8.731,0,0,1,49.395,42.699a9.47018,9.47018,0,0,1,3.36472-3.33088A8.91583,8.91583,0,0,1,57.3741,38.1196H70.69653A8.73382,8.73382,0,0,1,75.276,39.36813,9.56831,9.56831,0,0,1,78.60574,42.699a8.732,8.732,0,0,1,1.24962,4.57942ZM69.23954,79.82a5.213,5.213,0,0,1-5.20477,5.20369A5.12537,5.12537,0,0,1,60.323,83.49685a5.11284,5.11284,0,0,1,0-7.35479,5.1331,5.1331,0,0,1,3.71177-1.52574A5.21108,5.21108,0,0,1,69.23954,79.82Z"/></svg>