<svg id="Isi_Saldo" data-name="Isi Saldo" xmlns="http://www.w3.org/2000/svg" viewBox="0 0 128 128"><defs><style>.cls-1{fill:#f89938;fill-rule:evenodd;}</style></defs><path class="cls-1" d="M10.5,24.15959v79.68082A13.65959,13.65959,0,0,0,24.15958,117.5h79.68084A13.65959,13.65959,0,0,0,117.5,103.84041V24.15959A13.65959,13.65959,0,0,0,103.84042,10.5H24.15958A13.65959,13.65959,0,0,0,10.5,24.15959Zm91.06381,41.66174a9.334,9.334,0,0,1-9.334,9.334H84.48927a9.334,9.334,0,0,0-9.334,9.334v7.74043a9.334,9.334,0,0,1-9.334,9.334h-3.6425a9.334,9.334,0,0,1-9.334-9.334V84.48933a9.334,9.334,0,0,0-9.334-9.334h-7.7405a9.334,9.334,0,0,1-9.334-9.334V62.17867a9.334,9.334,0,0,1,9.334-9.334h7.74058a9.334,9.334,0,0,0,9.33395-9.334v-7.7405a9.334,9.334,0,0,1,9.334-9.334h3.64258a9.334,9.334,0,0,1,9.334,9.334v7.7405a9.334,9.334,0,0,0,9.334,9.334h7.74058a9.334,9.334,0,0,1,9.334,9.334Z"/></svg>