<svg id="Telpon" xmlns="http://www.w3.org/2000/svg" viewBox="0 0 128 128"><defs><style>.cls-1,.cls-2{fill:#f89938;}.cls-1{fill-rule:evenodd;}</style></defs><g id="Icons"><g id="Rounded"><g id="Communication"><g id="_-Round-_-Communication-_-phone" data-name="-Round-/-Communication-/-phone"><path id="_Icon-Color" data-name="🔹Icon-Color" class="cls-1" d="M90.95018,69.5905l-6.38767-.70413a5.11412,5.11412,0,0,0-4.12432,1.384L75.8109,74.73794A37.21017,37.21017,0,0,1,59.23816,58.73716l4.65244-4.49187a4.73472,4.73472,0,0,0,1.43345-3.982l-.7293-6.11866A4.974,4.974,0,0,0,59.59024,39.847H55.23958a4.89942,4.89942,0,0,0-5.02966,5.026C51.54278,65.60852,68.71908,82.16775,90.17058,83.4546a4.91445,4.91445,0,0,0,5.2057-4.85607V74.398A4.87538,4.87538,0,0,0,90.95018,69.5905Z"/></g></g></g></g><path class="cls-2" d="M117.37758,65.361a41.69191,41.69191,0,0,1-57.94786,35.09591l.00133-.00021c-.09135-.03916-.18175-.0801-.27277-.1199-.1634-.07144-.32675-.143-.489-.21646-.12621-.05714-.25161-.11572-.37715-.17406q-.20615-.09583-.41121-.19358-.191-.09132-.381-.18432c-.139-.06825-.27735-.13778-.41552-.20753-.11928-.06021-.23895-.11976-.35757-.18108q-.35154-.18174-.69928-.36974c-.11272-.061-.22425-.12392-.33633-.18594-.13967-.07729-.27926-.15466-.41794-.23349q-.18132-.10308-.36126-.20833-.19628-.11419-.39115-.23051c-.11822-.07051-.23642-.141-.35387-.21268-.1423-.08679-.28351-.17514-.42467-.26359-.13275-.08318-.26545-.16644-.39719-.25107q-.2868-.18425-.57065-.37262c-.10943-.07285-.21778-.14717-.32649-.221q-.19382-.13168-.38635-.2651-.16822-.11706-.33519-.23579-.19077-.13555-.37971-.27352c-.106-.07715-.21238-.15394-.31766-.23206q-.25455-.18891-.50569-.38211-.1904-.1458-.37877-.294c-.14169-.11111-.28318-.22243-.42338-.33533-.10185-.082-.2028-.16508-.30386-.248q-.18348-.1506-.3653-.30313-.15121-.127-.30144-.25515-.19209-.16446-.38171-.33168c-.08848-.07762-.17759-.15454-.2654-.23289q-.29907-.26688-.59292-.53938c-.08464-.07847-.168-.15832-.252-.23748q-.18769-.177-.37361-.35573-.13743-.13278-.27341-.26707-.17668-.17386-.35119-.34993c-.08686-.08752-.17387-.17487-.26-.26316q-.20967-.215-.41577-.43352c-.08134-.08585-.16279-.17159-.2434-.25812q-.244-.26193-.48372-.52789c-.07808-.08675-.155-.17449-.23243-.26189q-.17194-.1943-.34178-.39047-.11951-.1384-.23786-.27782-.1731-.20409-.34329-.41068c-.07-.08466-.14047-.16886-.20978-.25407q-.25972-.31937-.51359-.64363c-.05269-.06746-.10407-.136-.15635-.20378q-.18565-.24069-.36831-.48377c-.06889-.09205-.13692-.18476-.20506-.27739q-.1589-.216-.31511-.43412-.09986-.13947-.199-.27948-.17519-.249-.34641-.501c-.04814-.07058-.09714-.14049-.14485-.21137q-.23366-.34716-.46032-.69938c-.05236-.08126-.10347-.16338-.15528-.245q-.15639-.24647-.30976-.495-.08763-.14246-.174-.28576-.14677-.243-.29014-.48826c-.05224-.08921-.10487-.17816-.15647-.26778q-.19761-.34333-.38912-.69057l-.07132-.13038q-.187-.34253-.36753-.689c-.04642-.089-.09183-.17859-.13763-.26795q-.13361-.26068-.26383-.5234-.07075-.143-.14063-.28647-.136-.28021-.26755-.56294c-.03617-.07745-.07309-.15449-.10879-.2322q-.18021-.39234-.35269-.78889c-.02753-.0634-.05388-.12743-.08111-.191q-.13287-.31018-.26117-.62277c-.03839-.0938-.076-.188-.11376-.28214q-.11216-.28-.22033-.56192c-.03554-.09258-.07129-.185-.10618-.27794q-.12891-.34319-.25178-.68928c-.01674-.04709-.03431-.09379-.05089-.14095q-.14572-.41474-.28249-.83364c-.02646-.08078-.05176-.16208-.07775-.24309q-.09815-.30594-.192-.61382-.04384-.14435-.08662-.28915-.09062-.30636-.17643-.61478c-.02353-.08432-.04767-.16837-.07068-.25291q-.11711-.43022-.22586-.86382c-.007-.02811-.01333-.05648-.02028-.08461q-.09707-.39317-.18646-.78931c-.02052-.09074-.04009-.18184-.06-.2728q-.06846-.31248-.13234-.62664c-.01947-.09592-.03894-.19185-.05776-.288q-.0679-.34713-.12977-.69637c-.0117-.06575-.02431-.13118-.03569-.197q-.07727-.4467-.145-.8966c-.01012-.06722-.019-.13484-.02882-.20217q-.05126-.3522-.09687-.70618c-.01241-.09687-.02416-.19394-.03591-.291q-.03945-.32616-.07374-.65389c-.00965-.09188-.01971-.18363-.02876-.27567q-.04218-.42912-.07614-.86062-.12527-1.61612-.12667-3.265A41.678,41.678,0,0,1,68.569,21.10961a41.66995,41.66995,0,1,0-18.88728,79.903A41.66441,41.66441,0,0,0,117.5,68.57783Q117.5,66.9542,117.37758,65.361Z"/></svg>