<svg id="Store" xmlns="http://www.w3.org/2000/svg" viewBox="0 0 128 128"><defs><style>.cls-1{fill:#fff;}.cls-2{fill:#f89938;}</style></defs><path class="cls-1" d="M105.29846,72.70111c1.31271.00972,2.62635-.008,3.93788.03643a2.38338,2.38338,0,0,1,2.47276,2.4857c.04357,1.35676.04452,2.71489.06374,4.06986-.01335,3.228-.033,6.45851-.0374,9.68906-.00634,4.64915-.2011,4.84509-4.825,4.85333-.99626.00178-2.1714-.26266-2.9338.17326-.64742.37018-.33808,1.66825-.57373,2.53165-.02388.08751-.06656.16994-.08977.25758-1.08587,4.10108-3.8345,6.6744-7.61964,8.29593a12.781,12.781,0,0,1-7.49745-.12411,11.65953,11.65953,0,0,1-7.72-8.62011c-.08482-.35272-.19461-.69943-.2922-1.04666.24146-1.18005-.20108-1.51925-1.42155-1.4912-3.72465.08562-7.45315.0551-11.17905-.002-.88564-.01358-1.186.278-1.2365,1.11845a11.02336,11.02336,0,0,1-1.70868,5.10917,13.17641,13.17641,0,0,1-6.214,5.05254,12.69552,12.69552,0,0,1-7.91057-.26789,11.427,11.427,0,0,1-7.527-9.866c-.10387-.97465-.42778-1.20693-1.32191-1.14775-1.09.07213-2.18905.03928-3.28313.01093a2.5873,2.5873,0,0,1-2.72615-2.19108C30.89321,70.9389,25.42547,50.42357,20.41285,29.796a9.85817,9.85817,0,0,1-.2383-1.20327,2.1729,2.1729,0,0,0-1.91838-2.015,2.16483,2.16483,0,0,0-2.43162,1.1203A2.49024,2.49024,0,0,0,15.995,30.633a7.09209,7.09209,0,0,0,.79747.74334,2.42592,2.42592,0,0,1,.35934,3.32332,2.39,2.39,0,0,1-3.39939.50227A7.08646,7.08646,0,0,1,10.576,28.11937,7.01285,7.01285,0,0,1,15.9314,21.889,7.21686,7.21686,0,0,1,24.991,27.6721c.8371,4.04774,1.94567,8.039,2.907,12.06177.13235.5538.37733.7788.93321.71519a7.261,7.261,0,0,1,.82049-.00487q39.48141.00012,78.96283.00075a3.347,3.347,0,0,1,2.23623.41388,2.26427,2.26427,0,0,1,.8989,2.87353c-.45905,1.08191-.94007,2.1545-1.41143,3.23169C106.1245,55.22459,102.27277,63.66,98.20836,71.99227c-.33267.682-.059.76036.5315.75305C100.92591,72.71821,103.11223,72.714,105.29846,72.70111ZM85.41831,95.37339c.45136,2.84071,2.82132,4.87863,6.05809,5.20929a6.80222,6.80222,0,1,0-1.44711-13.29622A6.598,6.598,0,0,0,85.41831,95.37339Zm-37.25924.011c.30147,2.66492,2.52845,4.67184,5.77659,5.20578a6.8234,6.8234,0,0,0,6.55705-10.29756,6.8252,6.8252,0,0,0-8.70592-2.67531A6.52853,6.52853,0,0,0,48.15907,95.38437Zm58.55582-15.94381c.1874-1.78874.18738-1.79477-1.54351-1.78673-.81872.00379-1.63731.03575-2.456.055-.362-.02418-.724-.0696-1.086-.0695q-28.9761.00719-57.95222.02415c-.317.00018-.6339.03822-.95086.05859H38.04277c.66146,3.516,1.30421,6.955,1.9635,10.39082.04883.25446.20415.68872.3311.69654a22.09982,22.09982,0,0,0,3.277.0398c.74436-.06527.74766-.92446,1.08526-1.4265.19565-.24766.3962-.49163.58622-.74353a11.6994,11.6994,0,0,1,19.1011.60322A3.19976,3.19976,0,0,0,67.4506,88.8743c4.14747-.00712,8.29553-.04178,12.442.02207A1.99052,1.99052,0,0,0,81.9,87.73179a11.64732,11.64732,0,0,1,19.52677-.793c1.31342,1.906,2.89994,1.956,4.75954,1.93408.62681-.0074.60163-.40269.59812-.82558Q106.74874,83.74391,106.71489,79.44056Zm-65.3216-6.748q10.33223.0219,20.66444.042,14.57748.0108,29.155.00123c.62093-.00005,1.21706.11905,1.59107-.67026q5.93605-12.5275,11.93075-25.02722A4.197,4.197,0,0,0,105.407,45.364h-1.13267q-36.33395.00012-72.66789.00027a4.7651,4.7651,0,0,1-.547-.00233c-.68059-.07914-.73613.23377-.59532.80691q3.15591,12.845,6.28195,25.69736c.14383.59027.37078.92826,1.09358.87623C39.01923,72.6575,40.20823,72.7024,41.39329,72.69252Z"/><path class="cls-2" d="M105.29846,72.70111c-2.18623.01284-4.37255.0171-6.5586.04421-.59047.00731-.86417-.071-.5315-.75305C102.27277,63.66,106.1245,55.22459,110.33825,46.964c2.31461-.00049,4.6292-.00049,7.16175-.00049-.39484.85517-.70314,1.54619-1.03039,2.2281q-5.3382,11.12349-10.67742,22.24648C105.59734,71.84461,105.46168,72.27946,105.29846,72.70111Z"/><path class="cls-2" d="M95.69349,105.09391c3.78514-1.62153,6.53377-4.19485,7.61964-8.29593.02321-.08764.06589-.17007.08977-.25758.23565-.8634-.07369-2.16147.57373-2.53165.7624-.43592,1.93754-.17148,2.9338-.17326,4.62391-.00824,4.81867-.20418,4.825-4.85333.00441-3.23055.02405-6.46106.03741-9.68906,1.23036-.0148,2.4622.00483,3.68934-.06211.86644-.04726,1.07758.32287,1.07262,1.128q-.043,6.97779.00108,13.95591c.00593.86018-.31706,1.10223-1.12738,1.07971-1.64062-.04559-3.28619.04429-4.9243-.03445-1.02956-.0495-1.329.275-1.28477,1.30923a8.68084,8.68084,0,0,1-4.71094,8.47114A8.21889,8.21889,0,0,1,95.69349,105.09391Z"/><path class="cls-2" d="M58.4241,105.09a13.17641,13.17641,0,0,0,6.214-5.05254,11.02336,11.02336,0,0,0,1.70868-5.10917c.05051-.84042.35086-1.132,1.2365-1.11845,3.7259.05711,7.4544.08763,11.17905.002,1.22047-.02805,1.663.31115,1.42155,1.4912-2.367.02465-4.7336.08291-7.09955.06216-.87392-.00765-1.15773.23544-1.155,1.16073.01572,5.3858-3.0821,9.01826-8.34046,9.74579A6.9063,6.9063,0,0,1,58.4241,105.09Z"/><path class="cls-2" d="M42.72638,77.722c.317-.02037.6339-.05841.95086-.05859q28.97612-.01654,57.95222-.02415c.362-.0001.724.04532,1.08576.06955-.655,1.65273-.6549,1.64419,1.14694,1.65657.951.00654,1.90183.04894,2.85273.07515q.03456,4.30335.06949,8.6067c.00351.42289.02869.81818-.59812.82558-1.8596.022-3.44612-.02809-4.75954-1.93408a11.64732,11.64732,0,0,0-19.52677.793,1.99052,1.99052,0,0,1-2.00734,1.16458c-4.14648-.06385-8.29454-.02919-12.442-.02207a3.19976,3.19976,0,0,1-3.06369-1.59192,11.6994,11.6994,0,0,0-19.1011-.60322c-.19.2519-.39057.49587-.58666.74477C44.12881,84.173,43.58619,80.91527,42.72638,77.722Z"/><path class="cls-2" d="M48.15907,95.38437a6.52853,6.52853,0,0,1,3.62772-7.76709,6.8252,6.8252,0,0,1,8.70592,2.67531,6.8234,6.8234,0,0,1-6.557,10.29756c.006-1.404-.66953-2.73635-.45538-4.15826.13588-.90231-.32465-1.07893-1.09614-1.0599C50.97655,95.40668,49.56751,95.38344,48.15907,95.38437Z"/><path class="cls-2" d="M85.41831,95.37339a6.598,6.598,0,0,1,4.611-8.08693,6.80225,6.80225,0,1,1,1.44693,13.29626,8.95816,8.95816,0,0,1-.61268-4.36253c.12674-.72888-.25847-.84409-.841-.84126C88.48785,95.38639,86.95306,95.37642,85.41831,95.37339Z"/><path class="cls-2" d="M103.09746,46.97436q-33.0933-.00486-66.18652-.0025c-1.71637,0-1.72065.00256-1.30506,1.70031q2.77551,11.34018,5.55152,22.68018c.10736.4397.15765.89337.23516,1.34033q10.33329.02161,20.66516.04181,14.57749.0108,29.155.00122c.62091-.00006,1.217.119,1.59107-.67029q5.9361-12.52752,11.93078-25.02722C104.18883,47.016,103.64311,46.97442,103.09746,46.97436Z"/><path class="cls-1" d="M71.05394,65.337a.99247.99247,0,0,1-.07519,1.0293,1.13123,1.13123,0,0,1-.9502.51464h-.75a1.17378,1.17378,0,0,1-.63672-.19628,1.06575,1.06575,0,0,1-.4375-.49024L65.85472,60.6798a.45145.45145,0,0,0-.45019-.29443H63.08031a.28473.28473,0,0,0-.3252.31885V65.754a1.072,1.072,0,0,1-.33789.7959,1.11765,1.11765,0,0,1-.81152.33105h-.7002a1.03456,1.03456,0,0,1-.78711-.33105,1.11447,1.11447,0,0,1-.3125-.7959V51.4381a1.10443,1.10443,0,0,1,.3125-.80859,1.05469,1.05469,0,0,1,.78711-.31885h6.77344a3.19189,3.19189,0,0,1,1.65039.44141,3.41593,3.41593,0,0,1,1.19922,1.17627,3.0884,3.0884,0,0,1,.4502,1.64258V57.15a3.05493,3.05493,0,0,1-.5127,1.728,3.44435,3.44435,0,0,1-1.33691,1.189.224.224,0,0,0-.15039.15918.28275.28275,0,0,0,.02539.25732Zm-3.0498-8.187v-3.5791q0-.34278-.3252-.34327H63.08031a.28473.28473,0,0,0-.3252.31885V57.15a.28439.28439,0,0,0,.3252.31836h4.59863A.28439.28439,0,0,0,68.00414,57.15Z"/><path class="cls-1" d="M84.35179,57.15a3.11214,3.11214,0,0,1-.4375,1.61767,3.31664,3.31664,0,0,1-1.1875,1.17676,3.2436,3.2436,0,0,1-1.6748.44092H76.45238c-.19922,0-.29981.10644-.29981.31885V65.754a1.07478,1.07478,0,0,1-.33691.7959,1.11987,1.11987,0,0,1-.8125.33105h-.67481a1.1167,1.1167,0,0,1-.8125-.33105,1.07208,1.07208,0,0,1-.33789-.7959V51.4381a1.06213,1.06213,0,0,1,.33789-.80859,1.13978,1.13978,0,0,1,.8125-.31885H81.052a3.23925,3.23925,0,0,1,1.6748.44141,3.31141,3.31141,0,0,1,1.1875,1.17627,3.15946,3.15946,0,0,1,.4375,1.64258Zm-2.95019,0v-3.5791a.30624.30624,0,0,0-.34961-.34327H76.45238c-.19922,0-.29981.10645-.29981.31885V57.15c0,.2124.10059.31836.29981.31836H81.052Q81.40209,57.46838,81.4016,57.15Z"/></svg>