<svg id="WA" xmlns="http://www.w3.org/2000/svg" viewBox="0 0 128 128"><defs><style>.cls-1{fill:#f89938;}</style></defs><path class="cls-1" d="M89.6744,71.98366c-.20844-.1-8.009-3.94128-9.39515-4.44015a5.39594,5.39594,0,0,0-1.81692-.4016,3.09179,3.09179,0,0,0-2.62741,1.556c-.77922,1.15824-3.13808,3.91558-3.86693,4.73927-.09519.10874-.22512.23866-.30294.23866-.06983,0-1.277-.49713-1.64251-.65589-8.36789-3.63488-14.71945-12.37587-15.59039-13.8499a.86153.86153,0,0,1-.13062-.30815,2.51465,2.51465,0,0,1,.45718-.53986c.42488-.42036.88518-.97446,1.33055-1.51051.21087-.254.42209-.50825.62949-.748a8.40268,8.40268,0,0,0,1.26733-2.01146l.17474-.35122a3.6374,3.6374,0,0,0-.10595-3.424c-.18448-.36895-3.4782-8.31821-3.82838-9.15337-.84211-2.01528-1.95483-2.95361-3.50113-2.95361-.14347,0,0,0-.6017.02535-.73267.03092-4.72259.5562-6.4867,1.66823-1.87076,1.17943-5.0356,4.939-5.0356,11.55079,0,5.95066,3.77627,11.5692,5.39759,13.70607.0403.05385.1143.16328.22165.32031,6.20912,9.0679,13.9496,15.78806,21.79638,18.92267,7.55427,3.01754,11.13148,3.36633,13.16517,3.36633h.00035a20.57321,20.57321,0,0,0,2.14209-.12645l.38284-.03648c2.60968-.23137,8.34461-3.203,9.6491-6.8282,1.02761-2.8553,1.29859-5.975.6149-7.10716A4.92355,4.92355,0,0,0,89.6744,71.98366Z"/><path class="cls-1" d="M64.94976,10.5c-28.97894,0-52.55507,23.399-52.55507,52.16007a51.77661,51.77661,0,0,0,7.20548,26.37759l-9.02656,26.62667a1.38934,1.38934,0,0,0,1.73666,1.77036l27.76442-8.82263a52.91078,52.91078,0,0,0,24.87541,6.20217C93.92626,114.81457,117.5,91.41806,117.5,62.66007,117.5,33.899,93.92626,10.5,64.94976,10.5Zm0,93.44921a41.63433,41.63433,0,0,1-22.90634-6.82889,1.39017,1.39017,0,0,0-1.18325-.16224L26.9519,101.37913,31.44174,88.133a1.39017,1.39017,0,0,0-.1949-1.267,40.7276,40.7276,0,0,1-7.92529-24.206,41.6268,41.6268,0,1,1,41.62821,41.28914Z"/></svg>